<?xml version="1.0" standalone="no"?>
<!DOCTYPE svg PUBLIC "-//W3C//DTD SVG 1.1//EN" "http://www.w3.org/Graphics/SVG/1.1/DTD/svg11.dtd">
<svg xmlns="http://www.w3.org/2000/svg">
<metadata>Copyright (C) 2018 by original authors @ fontello.com</metadata>
<defs>
<font id="logofont" horiz-adv-x="1000" >
<font-face font-family="logofont" font-weight="400" font-stretch="normal" units-per-em="1000" ascent="850" descent="-150" />
<missing-glyph horiz-adv-x="1000" />
<glyph glyph-name="user" unicode="&#x31;" d="M714 69q0-60-35-104t-84-44h-476q-49 0-84 44t-35 104q0 48 5 90t17 85 33 73 52 50 76 19q73-72 174-72t175 72q42 0 75-19t52-50 33-73 18-85 4-90z m-143 495q0-88-62-151t-152-63-151 63-63 151 63 152 151 63 152-63 62-152z" horiz-adv-x="714.3" />

<glyph glyph-name="users" unicode="&#x32;" d="M331 350q-90-3-148-71h-75q-45 0-77 22t-31 66q0 197 69 197 4 0 25-11t54-24 66-12q38 0 75 13-3-21-3-37 0-78 45-143z m598-356q0-66-41-105t-108-39h-488q-68 0-108 39t-41 105q0 30 2 58t8 61 14 61 24 54 35 45 48 30 62 11q6 0 24-12t41-26 59-27 76-12 75 12 60 27 41 26 24 12q34 0 62-11t47-30 35-45 24-54 15-61 8-61 2-58z m-572 713q0-59-42-101t-101-42-101 42-42 101 42 101 101 42 101-42 42-101z m393-214q0-89-63-152t-151-62-152 62-63 152 63 151 152 63 151-63 63-151z m321-126q0-43-31-66t-77-22h-75q-57 68-147 71 45 65 45 143 0 16-3 37 37-13 74-13 33 0 67 12t54 24 24 11q69 0 69-197z m-71 340q0-59-42-101t-101-42-101 42-42 101 42 101 101 42 101-42 42-101z" horiz-adv-x="1071.4" />

<glyph glyph-name="doc-text" unicode="&#x33;" d="M819 638q16-16 27-42t11-50v-642q0-23-15-38t-38-16h-750q-23 0-38 16t-16 38v892q0 23 16 38t38 16h500q22 0 49-11t42-27z m-248 136v-210h210q-5 17-12 23l-175 175q-6 7-23 12z m215-853v572h-232q-23 0-38 16t-16 37v233h-429v-858h715z m-572 483q0 7 5 12t13 5h393q8 0 13-5t5-12v-36q0-8-5-13t-13-5h-393q-8 0-13 5t-5 13v36z m411-125q8 0 13-5t5-13v-36q0-8-5-13t-13-5h-393q-8 0-13 5t-5 13v36q0 8 5 13t13 5h393z m0-143q8 0 13-5t5-13v-36q0-8-5-13t-13-5h-393q-8 0-13 5t-5 13v36q0 8 5 13t13 5h393z" horiz-adv-x="857.1" />

<glyph glyph-name="calendar" unicode="&#x34;" d="M71-79h161v161h-161v-161z m197 0h178v161h-178v-161z m-197 197h161v178h-161v-178z m197 0h178v178h-178v-178z m-197 214h161v161h-161v-161z m411-411h179v161h-179v-161z m-214 411h178v161h-178v-161z m428-411h161v161h-161v-161z m-214 197h179v178h-179v-178z m-196 482v161q0 7-6 12t-12 6h-36q-7 0-12-6t-6-12v-161q0-7 6-13t12-5h36q7 0 12 5t6 13z m410-482h161v178h-161v-178z m-214 214h179v161h-179v-161z m214 0h161v161h-161v-161z m18 268v161q0 7-5 12t-13 6h-35q-7 0-13-6t-5-12v-161q0-7 5-13t13-5h35q8 0 13 5t5 13z m215 36v-715q0-29-22-50t-50-21h-786q-29 0-50 21t-21 50v715q0 29 21 50t50 21h72v54q0 37 26 63t63 26h36q37 0 63-26t26-63v-54h214v54q0 37 27 63t63 26h35q37 0 64-26t26-63v-54h71q29 0 50-21t22-50z" horiz-adv-x="928.6" />

<glyph glyph-name="doc" unicode="&#x35;" d="M819 638q16-16 27-42t11-50v-642q0-23-15-38t-38-16h-750q-23 0-38 16t-16 38v892q0 23 16 38t38 16h500q22 0 49-11t42-27z m-248 136v-210h210q-5 17-12 23l-175 175q-6 7-23 12z m215-853v572h-232q-23 0-38 16t-16 37v233h-429v-858h715z" horiz-adv-x="857.1" />

<glyph glyph-name="star" unicode="&#x37;" d="M929 489q0-12-15-27l-202-197 48-279q0-4 0-12 0-11-6-19t-17-9q-10 0-22 7l-251 132-250-132q-12-7-23-7-11 0-17 9t-6 19q0 4 1 12l48 279-203 197q-14 15-14 27 0 21 31 26l280 40 126 254q11 23 27 23t28-23l125-254 280-40q32-5 32-26z" horiz-adv-x="928.6" />

<glyph glyph-name="star-empty" unicode="&#x38;" d="M635 290l170 166-235 34-106 213-105-213-236-34 171-166-41-235 211 111 211-111z m294 199q0-12-15-27l-202-197 48-279q0-4 0-12 0-28-23-28-10 0-22 7l-251 132-250-132q-12-7-23-7-11 0-17 9t-6 19q0 4 1 12l48 279-203 197q-14 15-14 27 0 21 31 26l280 40 126 254q11 23 27 23t28-23l125-254 280-40q32-5 32-26z" horiz-adv-x="928.6" />

<glyph glyph-name="star-half-alt" unicode="&#x39;" d="M662 316l143 140-198 29-37 5-17 34-89 179v-537l33-17 178-94-34 198-6 37z m252 146l-202-197 48-279q2-19-4-29t-19-11q-9 0-22 7l-251 132-250-132q-13-7-23-7-12 0-19 11t-3 29l48 279-203 197q-18 18-13 33t30 20l280 40 126 254q11 23 27 23 16 0 28-23l125-254 280-40q25-4 31-20t-14-33z" horiz-adv-x="928.6" />

<glyph glyph-name="left-open" unicode="&#x3c;" d="M654 682l-297-296 297-297q10-10 10-25t-10-25l-93-93q-11-10-25-10t-25 10l-414 415q-11 10-11 25t11 25l414 414q10 11 25 11t25-11l93-93q10-10 10-25t-10-25z" horiz-adv-x="714.3" />

<glyph glyph-name="menu" unicode="&#x3d;" d="M857 100v-71q0-15-10-25t-26-11h-785q-15 0-25 11t-11 25v71q0 15 11 25t25 11h785q15 0 26-11t10-25z m0 286v-72q0-14-10-25t-26-10h-785q-15 0-25 10t-11 25v72q0 14 11 25t25 10h785q15 0 26-10t10-25z m0 285v-71q0-14-10-25t-26-11h-785q-15 0-25 11t-11 25v71q0 15 11 26t25 10h785q15 0 26-10t10-26z" horiz-adv-x="857.1" />

<glyph glyph-name="right-open" unicode="&#x3e;" d="M618 361l-414-415q-11-10-25-10t-25 10l-93 93q-11 11-11 25t11 25l296 297-296 296q-11 11-11 25t11 25l93 93q10 11 25 11t25-11l414-414q10-11 10-25t-10-25z" horiz-adv-x="714.3" />

<glyph glyph-name="help-circled" unicode="&#x3f;" d="M500 82v107q0 8-5 13t-13 5h-107q-8 0-13-5t-5-13v-107q0-8 5-13t13-5h107q8 0 13 5t5 13z m143 375q0 49-31 91t-77 65-95 23q-136 0-207-119-9-13 4-24l74-55q4-4 10-4 9 0 14 7 30 38 48 51 19 14 48 14 27 0 48-15t21-33q0-21-11-34t-38-25q-35-15-65-48t-29-70v-20q0-8 5-13t13-5h107q8 0 13 5t5 13q0 10 12 27t30 28q18 10 28 16t25 19 25 27 16 34 7 45z m214-107q0-117-57-215t-156-156-215-58-216 58-155 156-58 215 58 215 155 156 216 58 215-58 156-156 57-215z" horiz-adv-x="857.1" />

<glyph glyph-name="beavers" unicode="&#x42;" d="M3567 609c-63 26-125 54-188 78-317 97-432-29-436-27-59 32-124 46-191 51-63 5-127 6-193 9l0 34c-46-6-440-54-441-50-50 75-101 146-102 146-21-38-124-179-156-237-18 37-36 72-54 108-79-25-158-50-237-75-8 15-15 30-24 43-4 7-287 74-291 63-18-51-58-155-61-157l0 160c-33-4-471-58-474-55-38 57-95 83-160 94-84 14-167 6-251-5-104-14-205-42-307-68-2 0 111-646 123-713 25 5 48 9 74 14 8-44 16-87 24-132 184 18 366 36 529 139 2-11 4-22 7-34 28 4 251 34 335 44 6 1 122-47 173-69 6-2 12-4 19-7 33 77 65 154 99 235 28-79 54-154 82-231 71 47 140 92 211 139 41-85 82-169 124-256 93 146 185 291 280 439 15-101 29-197 43-295 33 4 263 37 347 46 34 4 230-12 235-12 4 24 7 47 11 75 85-73 168-144 252-215 13 15 110 130 136 162 8 11 127-66 258-35 81 26 137 77 156 163 10 47-7 107-28 150-3 8 75 275 76 281m-2807-361c0-81-136-178-431-211l-13 75c215 48 307 116 307 158 0 44-75 73-340 46l17-138-71-13-86 477c244 64 487 76 487-22 0-80-84-170-253-241 248 30 383-34 383-131m331-72l-223-30-64 447 272 36 0-84-180-20 11-88 150 11 19-127-161-13 13-82 156 9z m562 70l-117-77-69 196-145 0-95-228-60 25 177 473 120-27z m432 279l-262-410-208 428 135 43 113-223 158 287z m374-349l-224-31-64 446 272 37 0-84-180-21 11-86 150 11 19-128-161-13 13-82 156 9z m342 186l234-201-73-86-273 232c-33-13-67-25-67-25l-15-111-64 5 34 431c207 9 352-25 352-95 0-46-59-101-128-150m628 190l-30-115c-75 30-156 54-203 54-47 0-53-16-53-25 0-80 265-106 265-235 0-55-48-91-134-94-83-3-162 40-242 111l28 42c57-41 118-65 178-77 44-4 65 8 65 35 0 88-291 92-291 252 0 60 48 121 151 121 116 0 267-69 267-69m-628-46c-1 31-43 53-147 53l-27-196c98 39 174 98 174 143m-1468-94l124-8-66 158z m-1063 3c79 39 173 122 173 171 0 39-42 55-199 25l25-196z m0 0" horiz-adv-x="3567" />

<glyph glyph-name="cubs" unicode="&#x43;" d="M518 49l-157 0c-85 0-135 37-135 113 0 70 34 123 83 168 44 40 93 60 148 60l74 0 98 199-176 0c-131 0-240-42-325-126-85-84-128-188-128-312 0-95 25-168 76-219 54-55 132-82 236-82l274 0z m763 540l-234 0 0-539-26 0c-58 0-97 6-118 18-30 17-45 53-45 106 0 52 14 121 43 210 2 5 28 74 76 205l-241 0c-84-178-126-322-126-431 0-205 98-308 296-308l376 0z m704-87c-52 58-133 87-242 87l-122 0 0 261-235 0 0-1000 242 0c114 0 213 45 297 135 84 90 126 197 126 320 0 83-22 148-66 197m-227-371c-36-47-82-74-137-82l0 341 75 0c77 0 116-34 116-102 0-57-18-109-54-156m767 68l-105 131c-13 16-20 28-20 37 0 18 19 28 55 28l130 0 0 193-268 0c-70 0-111-22-147-66-26-32-39-67-39-104 0-56 12-112 60-167l120-135c15-18 23-33 23-46 0-14-11-22-33-22l-210 0-133-199 453 0c55 0 99 18 134 54 34 36 51 78 51 127 0 53-24 109-71 169" horiz-adv-x="2596" />

<glyph glyph-name="cambridge-linear" unicode="&#x44;" d="M183 289l33 40c23-19 47-31 76-31 23 0 37 9 37 24l0 1c0 14-9 21-52 32-51 13-84 28-84 78l0 1c0 46 37 77 89 77 37 0 69-12 95-32l-29-43c-23 16-45 25-67 25-21 0-32-9-32-22l0 0c0-17 11-23 55-34 52-14 81-32 81-77l0 0c0-51-39-80-94-80-39 0-78 14-108 41m223 60l0 0c0 56 43 102 102 102 37 0 60-12 79-32l-34-37c-13 13-25 22-45 22-28 0-47-25-47-54l0 0c0-30 19-54 49-54 19 0 32 8 45 20l33-33c-19-20-41-35-80-35-59 0-102 45-102 101m350 0l0 1c0 28-21 54-52 54-31 0-50-25-50-54l0 0c0-29 20-54 51-54 32 0 51 24 51 53m-157 0l0 1c0 56 45 101 106 101 61 0 106-44 106-101l0 0c0-57-46-102-107-102-60 0-105 45-105 101m233-28l0 127 56 0 0-109c0-27 12-40 33-40 22 0 35 13 35 40l0 109 56 0 0-196-56 0 0 28c-13-17-29-32-57-32-42 0-67 28-67 73m212-13l0 190 55 0 0-50 46 0 0-47-46 0 0-84c0-13 6-19 18-19 10 0 20 3 28 7l0-45c-12-6-25-11-44-11-34 0-57 14-57 59m126-30l24 37c21-15 43-23 61-23 16 0 24 5 24 14l0 1c0 12-19 16-41 22-27 8-58 21-58 59l0 1c0 40 32 62 71 62 25 0 52-8 73-23l-21-38c-19 11-38 18-53 18-13 0-20-6-20-13l0-1c0-11 19-16 40-23 27-9 59-22 59-58l0-1c0-43-33-63-75-63-27 0-58 9-84 29m428 182c16-24 24-52 26-70l29 0c-2 23-12 56-31 86-23 36-53 54-87 54l0 0c-26 0-50-11-67-31-17-22-23-49-17-76l28 6c-4 18 0 37 12 51 11 14 26 22 44 22l0 0c30 0 51-23 63-42m209-201c-12 16-20 34-23 52l-30 0c3-14 9-37 24-61-10-17-27-33-46-42 0 0 0 0 0 0 0 0 0 0 0 0-18 9-36 25-46 42 16 24 22 47 24 61l-29 0c-4-18-12-36-23-52l-5-7 4-7c12-27 40-53 70-66l5-3 0 0 6 3c30 13 58 39 70 66l3 7z m0 0m59 201c-15-24-23-52-26-71l-29 0c3 23 12 57 31 87 23 35 54 54 87 54l1 0c25 0 50-12 66-32 17-21 24-49 18-75l-28 6c4 18-1 37-12 51-11 14-27 21-44 21l0 0c-30 0-51-22-63-41m-185-71l29 0c-4 33-17 62-28 88-12 26-23 50-22 74 0 28 16 56 42 76 4 3 17 13 29 24 12-11 25-21 30-24 26-20 42-48 42-76 0-24-11-48-22-74-12-26-25-55-29-88l29 0c4 28 15 52 26 76 13 29 25 56 25 86-1 37-21 74-54 99-4 3-25 18-36 31l-11 11-10-11c-12-13-33-28-37-31-33-25-53-62-53-99 0-30 12-57 24-86 11-24 22-48 26-76m-114-53l328 0 0 28-328 0z m0 0m-634-253l-47 0c1-6 3-11 6-13 3-3 7-4 13-4 4 0 7 1 11 2 4 1 7 3 10 5l6-15c-3-3-8-5-13-6-5-2-10-3-15-3-12 0-22 4-29 10-7 7-11 16-11 28 0 7 2 14 5 20 3 5 7 10 13 13 5 3 11 5 18 5 10 0 18-4 24-10 6-7 9-16 9-27z m-32 26c-4 0-8-1-10-4-3-2-4-6-5-11l29 0c-1 5-2 9-4 12-3 2-6 3-10 3z m0 0m-50 14l0-65c0-12-4-21-10-27-7-6-17-9-30-9-6 0-13 1-19 3-6 1-11 4-15 6l5 16c10-5 19-8 28-8 13 0 19 6 19 17l0 8c-2-3-5-6-9-8-5-3-9-4-14-4-7 0-12 2-17 5-5 3-9 7-11 12-3 6-4 12-4 19 0 8 1 14 4 19 2 6 6 10 11 13 5 3 10 5 17 5 5 0 9-1 13-4 4-2 8-5 10-8l0 10z m-39-54c5 0 9 2 12 5 3 4 4 8 4 14 0 6-1 11-4 15-3 3-7 5-12 5-5 0-9-2-12-5-3-4-5-9-5-15 0-5 2-10 5-14 3-3 7-5 12-5z m0 0m-53 86l0-105-22 0 0 11c-2-4-5-7-9-9-4-2-8-3-14-3-6 0-11 2-16 5-5 3-9 8-11 13-3 6-4 13-4 20 0 8 1 14 4 20 2 6 6 10 11 13 5 3 10 5 16 5 5 0 10-1 14-3 4-2 7-5 9-9l0 42z m-38-89c5 0 9 2 12 6 3 3 4 8 4 15 0 7-1 12-4 15-3 4-7 6-12 6-5 0-9-2-12-6-3-3-5-8-5-15 0-6 2-12 5-15 2-4 6-6 12-6z m0 0m-75-16l0 73 22 0 0-73z m-1 108l24 0 0-21-24 0z m0 0m-6-51l-13-2c-6 0-10-2-13-5-2-3-4-7-4-11l0-38-22 0 0 72 21 0 0-12c4 8 12 13 23 14l7 0z m0-1m-98 19c6 0 12-2 17-5 5-3 8-7 11-13 3-5 4-12 4-20 0-7-1-14-4-19-3-6-6-11-11-14-5-3-11-5-17-5-5 0-9 1-13 3-4 3-8 5-10 9l0-11-22 0 0 105 23 0 0-42c2 4 5 7 9 9 4 2 8 3 13 3z m-7-59c6 0 10 2 13 6 2 3 4 9 4 15 0 7-2 12-4 15-3 4-7 6-13 6-5 0-9-2-12-6-2-3-4-9-4-15 0-7 2-12 4-16 3-3 7-5 12-5z m0 0m-79 59c8 0 14-3 18-8 4-5 6-12 6-23l0-44-22 0 0 43c0 5-1 9-3 11-1 2-4 3-7 3-4 0-8-1-10-4-2-3-4-7-4-13l0-40-22 0 0 43c0 5-1 9-2 11-2 2-4 3-8 3-4 0-8-1-10-4-2-3-3-7-3-13l0-40-23 0 0 73 22 0 0-10c2 4 5 7 9 9 4 2 8 3 13 3 11 0 18-5 22-14 2 4 5 8 10 10 4 2 9 4 14 4z m0 0m-139 0c11 0 19-3 24-8 6-5 8-13 8-24l0-43-21 0 0 11c-1-3-4-6-7-9-4-2-8-3-12-3-5 0-10 1-14 3-4 2-7 5-9 8-2 4-4 8-4 12 0 6 2 10 4 13 3 3 7 5 14 6 6 2 14 2 24 2l4 0 0 3c0 4-1 7-3 9-2 2-5 3-10 3-3 0-7-1-11-2-5-1-9-3-13-5l-6 15c4 2 10 4 16 6 6 2 11 3 17 3z m-4-60c5 0 8 1 11 4 2 3 4 6 4 11l0 3-3 0c-8 0-13-1-16-2-4-2-5-4-5-7 0-3 1-5 2-7 2-2 5-2 7-2z m0 0m-77-16c-11 0-20 2-28 7-8 4-14 10-18 18-4 8-6 18-6 29 0 10 2 20 6 28 4 8 10 14 18 18 8 5 17 7 28 7 6 0 13-1 19-3 7-2 12-5 16-9l-7-16c-5 3-9 6-14 7-4 2-9 3-14 3-9 0-16-3-21-9-5-6-8-15-8-26 0-12 3-21 8-27 5-5 12-8 21-8 5 0 10 0 14 2 4 1 9 4 14 7l7-16c-4-4-9-7-16-9-6-2-13-3-19-3z m-1 0" horiz-adv-x="2200" />

<glyph glyph-name="explorers" unicode="&#x45;" d="M1689 824l-303-372-306 372-170 0 389-470-419-504 171 0 334 404 332-404 168 0-417 504 390 470z m0 0m667-974l0 422 103 0c92 0 162 10 212 30 49 20 88 51 116 95 28 44 43 94 43 151 0 84-28 151-83 202-56 50-130 75-223 75l-308 0 0-975z m330 701c0-49-16-88-46-114-31-27-75-41-131-41l-153 0 0 305 144 0c124 0 185-50 185-150m504 274l0-973 578 0 0 126-439 0 0 847z m0 0m937-118c-98-95-147-215-147-361 0-141 49-259 146-353 98-94 220-142 367-142 154 0 281 47 382 142 101 94 151 213 151 356 0 144-50 263-150 358-100 95-225 143-375 143-151 0-275-47-373-143m646-95c73-70 109-157 109-260 0-106-36-194-109-266-73-71-163-106-272-106-108 0-198 35-270 104-72 70-108 157-108 262 0 109 36 198 108 267 71 70 163 105 274 105 106 0 195-35 268-106m839-760l0 423 37 0c45 0 78-5 97-15 19-11 41-28 65-51 24-24 50-56 79-96l46-76 44-71 27-38c4-6 7-10 8-12l42-64 166 0-51 70c-21 27-48 69-82 124-54 88-95 150-125 185-30 35-60 63-91 84 53 20 93 51 121 92 29 42 43 91 43 147 0 84-29 150-87 198-58 49-136 73-234 73l-244 0 0-973z m189 839c30-10 52-28 69-52 16-25 24-53 24-84 0-31-7-58-22-83-14-24-35-42-61-54-26-12-75-19-145-19l-53 0 0 308 41 0c69 0 118-5 147-16m812 133l0-972 565 0 0 124-426 0 0 302 399 0 0 125-399 0 0 297 413 0 0 124z m0 0m1200-973l0 424 36 0c45 0 78-5 97-16 20-10 41-27 65-51 24-23 50-55 79-95l47-76 43-71 27-38c4-6 7-10 8-12l43-64 166 0-52 69c-20 28-48 70-82 125-53 88-95 150-125 185-30 35-60 63-91 84 53 20 94 51 122 92 28 41 42 90 42 147 0 83-29 149-86 198-58 49-136 73-235 73l-244 0 0-973z m188 840c30-10 53-28 69-52 16-25 24-53 24-84 0-31-7-58-22-83-14-24-35-42-61-54-26-12-75-19-145-19l-53 0 0 308 42 0c68 0 117-5 146-16m1185-589c0-36-14-67-43-91-29-24-66-36-109-36-99 0-186 47-262 143l0-177c79-59 167-89 263-89 84 0 152 24 204 73 52 49 78 112 78 190 0 110-59 200-178 271l-106 63c-48 28-83 55-104 80-22 26-33 53-33 82 0 33 15 60 44 81 29 21 67 31 112 31 81 0 157-33 227-101l0 158c-68 46-143 69-224 69-85 0-154-24-207-72-53-48-80-110-80-187 0-51 14-96 42-135 28-39 75-79 142-120l106-64c85-53 128-110 128-169m-9186 722l0-972 565 0 0 124-426 0 0 302 399 0 0 125-399 0 0 297 413 0 0 124z m0 0" horiz-adv-x="9317" />

<glyph glyph-name="facebook-squared" unicode="&#x46;" d="M696 779q67 0 114-48t47-113v-536q0-66-47-113t-114-48h-104v333h111l16 129h-127v83q0 31 13 46t51 16l68 1v115q-35 5-100 5-75 0-121-44t-45-127v-95h-112v-129h112v-333h-297q-67 0-114 48t-47 113v536q0 66 47 113t114 48h535z" horiz-adv-x="857.1" />

<glyph glyph-name="sands-linear" unicode="&#x47;" d="M183 289l33 40c23-19 47-31 76-31 23 0 37 9 37 24l0 1c0 14-9 21-52 32-51 13-84 28-84 78l0 1c0 46 37 77 89 77 37 0 69-12 95-32l-29-43c-23 16-45 25-67 25-21 0-32-9-32-22l0 0c0-17 11-23 55-34 52-14 81-32 81-77l0 0c0-51-39-80-94-80-39 0-78 14-108 41m223 60l0 0c0 56 43 102 102 102 37 0 60-12 79-32l-34-37c-13 13-25 22-45 22-28 0-47-25-47-54l0 0c0-30 19-54 49-54 19 0 32 8 45 20l33-33c-19-20-41-35-80-35-59 0-102 45-102 101m350 0l0 1c0 28-21 54-52 54-31 0-50-25-50-54l0 0c0-29 20-54 51-54 32 0 51 24 51 53m-157 0l0 1c0 56 45 101 106 101 61 0 106-44 106-101l0 0c0-57-46-102-107-102-60 0-105 45-105 101m233-28l0 127 56 0 0-109c0-27 12-40 33-40 22 0 35 13 35 40l0 109 56 0 0-196-56 0 0 28c-13-17-29-32-57-32-42 0-67 28-67 73m212-13l0 190 55 0 0-50 46 0 0-47-46 0 0-84c0-13 6-19 18-19 10 0 20 3 28 7l0-45c-12-6-25-11-44-11-34 0-57 14-57 59m126-30l24 37c21-15 43-23 61-23 16 0 24 5 24 14l0 1c0 12-19 16-41 22-27 8-58 21-58 59l0 1c0 40 32 62 71 62 25 0 52-8 73-23l-21-38c-19 11-38 18-53 18-13 0-20-6-20-13l0-1c0-11 19-16 40-23 27-9 59-22 59-58l0-1c0-43-33-63-75-63-27 0-58 9-84 29m428 182c16-24 24-52 26-70l29 0c-2 23-12 56-31 86-23 36-53 54-87 54l0 0c-26 0-50-11-67-31-17-22-23-49-17-76l28 6c-4 18 0 37 12 51 11 14 26 22 44 22l0 0c30 0 51-23 63-42m209-201c-12 16-20 34-23 52l-30 0c3-14 9-37 24-61-10-17-27-33-46-42 0 0 0 0 0 0 0 0 0 0 0 0-18 9-36 25-46 42 16 24 22 47 24 61l-29 0c-4-18-12-36-23-52l-5-7 4-7c12-27 40-53 70-66l5-3 0 0 6 3c30 13 58 39 70 66l3 7z m0 0m59 201c-15-24-23-52-26-71l-29 0c3 23 12 57 31 87 23 35 54 54 87 54l1 0c25 0 50-12 66-32 17-21 24-49 18-75l-28 6c4 18-1 37-12 51-11 14-27 21-44 21l0 0c-30 0-51-22-63-41m-185-71l29 0c-4 33-17 62-28 88-12 26-23 50-22 74 0 28 16 56 42 76 4 3 17 13 29 24 12-11 25-21 30-24 26-20 42-48 42-76 0-24-11-48-22-74-12-26-25-55-29-88l29 0c4 28 15 52 26 76 13 29 25 56 25 86-1 37-21 74-54 99-4 3-25 18-36 31l-11 11-10-11c-12-13-33-28-37-31-33-25-53-62-53-99 0-30 12-57 24-86 11-24 22-48 26-76m-114-53l328 0 0 28-328 0z m0 0m-599-286l-10 11c-9-8-20-12-31-12-8 0-14 1-20 4-5 2-10 6-13 10-3 4-5 9-5 15 0 6 2 12 5 17 4 5 9 9 16 13-3 4-6 7-8 11-1 4-2 7-2 11 0 5 1 9 3 13 3 4 7 7 11 9 5 2 10 3 16 3 8 0 15-2 20-6 5-4 7-10 7-17 0-5-1-10-4-15-3-4-8-8-14-12l17-17c4 7 6 16 7 26l18 0c0-15-4-28-11-39l25-25z m-38 91c-3 0-5-1-7-3-2-2-3-4-3-8 0-2 0-4 1-6 1-1 3-4 6-7 5 2 8 5 10 7 2 2 2 5 2 7 0 3 0 6-2 7-2 2-4 3-7 3z m-3-75c6 0 13 2 18 7l-24 24c-7-5-10-10-10-17 0-4 1-8 4-10 3-3 7-4 12-4z m0 0m-119-17c-7 0-13 1-19 2-5 2-10 4-14 7l6 15c4-2 8-4 13-6 4-1 9-2 14-2 4 0 6 1 8 2 2 1 3 2 3 4 0 2-1 3-2 4-1 1-4 2-7 3l-12 3c-7 1-12 4-16 7-3 3-4 8-4 13 0 5 1 9 3 12 3 4 7 6 12 8 4 2 10 3 16 3 5 0 10 0 15-2 5-2 9-4 13-7l-5-14c-8 5-16 8-23 8-4 0-6-1-8-2-2-1-3-3-3-5 0-2 0-3 1-4 2-1 4-1 7-2l12-3c7-2 13-4 16-8 3-3 5-8 5-13 0-7-3-13-8-17-6-4-13-6-23-6z m0 0m-45 106l0-105-23 0 0 11c-2-4-5-7-9-9-4-2-8-3-13-3-6 0-12 2-17 5-5 3-9 8-11 13-3 6-4 13-4 20 0 8 1 14 4 20 2 6 6 10 11 13 5 3 10 5 17 5 5 0 9-1 13-3 4-2 7-5 9-9l0 42z m-39-89c5 0 9 2 12 6 3 3 4 8 4 15 0 7-1 12-4 15-3 4-7 6-12 6-5 0-9-2-12-6-3-3-4-8-4-15 0-6 1-12 4-15 3-4 7-6 12-6z m0 0m-42 40l-13-1c-6-1-11-2-13-5-3-3-4-7-4-12l0-38-22 0 0 73 21 0 0-12c4 8 11 13 23 14l6 0z m0 0m-105-57c-7 0-14 2-20 5-6 3-10 7-13 13-3 6-5 12-5 20 0 8 2 14 5 20 3 6 7 10 13 13 6 3 13 5 20 5 8 0 15-2 21-5 5-3 10-7 13-13 3-6 5-12 5-20 0-8-2-14-5-20-3-6-7-10-13-13-6-3-13-5-21-5z m0 17c11 0 17 7 17 21 0 7-2 12-5 16-2 3-6 5-12 5-10 0-16-7-16-21 0-14 6-21 16-21z m0 0m-62 57l18 0 0-17-18 0 0-56-22 0 0 56-14 0 0 17 14 0c0 10 3 18 8 23 6 5 15 8 27 9l8 0 1-16-7 0c-5-1-9-2-12-4-2-1-3-5-3-9z m0 0m-68-73l0 105 23 0 0-105z m0 0m-13 32l-48 0c1-5 3-10 6-12 3-3 7-4 13-4 4 0 8 1 11 2 4 1 7 3 10 5l6-15c-3-3-8-5-13-7-5-1-10-2-15-2-12 0-22 3-29 10-7 7-10 16-10 28 0 7 1 14 4 20 3 5 7 10 13 13 5 3 11 5 18 5 10 0 18-4 24-10 6-7 9-16 9-27z m-33 27c-4 0-7-1-10-4-3-2-4-6-5-11l29 0c0 5-2 9-4 12-2 2-6 3-10 3z m0 0m-75 16c8 0 15-3 19-8 4-5 6-13 6-23l0-44-22 0 0 43c0 5-1 9-3 11-1 2-4 3-8 3-5 0-8-1-11-4-3-3-4-7-4-12l0-41-23 0 0 105 23 0 0-41c2 3 6 6 10 8 4 2 8 3 13 3z m0 0m-104-76c-8 0-15 1-23 3-7 2-13 5-18 9l7 16c10-7 22-10 34-10 7 0 12 1 15 3 4 2 5 5 5 9 0 3-1 6-4 8-3 1-9 3-17 5-10 2-17 4-22 7-6 2-10 6-12 10-3 4-4 8-4 14 0 6 2 12 5 17 4 5 9 9 15 11 6 3 13 5 22 5 7 0 14-1 21-4 7-2 12-5 16-8l-7-17c-9 7-20 11-30 11-6 0-11-1-14-4-4-2-5-5-5-9 0-3 0-5 1-6 2-2 4-3 7-4 3-1 8-2 13-4 14-3 23-6 29-11 6-5 9-11 9-19 0-10-4-18-11-24-8-5-18-8-32-8z m0 0m681-44l0-105-22 0 0 11c-2-3-5-6-9-9-4-2-8-3-14-3-6 0-11 2-16 5-5 3-9 8-11 14-3 5-4 12-4 19 0 8 1 14 4 20 2 6 6 10 11 13 5 3 10 5 16 5 5 0 10-1 14-3 4-2 7-5 9-9l0 42z m-38-89c5 0 9 2 12 6 3 3 4 8 4 15 0 7-1 12-4 15-3 4-7 6-12 6-5 0-9-2-12-6-3-3-5-8-5-15 0-6 2-12 5-15 2-4 6-6 12-6z m0 0m-43 40l-12-1c-6 0-11-2-13-5-3-3-4-7-4-12l0-37-22 0 0 72 21 0 0-12c4 8 11 13 22 14l7 0z m0 1m-104-58c-7 0-14 2-20 5-6 3-10 7-13 13-3 6-5 12-5 20 0 8 1 14 5 20 3 6 7 10 13 13 6 3 13 5 20 5 8 0 15-2 20-5 6-3 11-7 14-13 3-6 5-12 5-20 0-8-2-14-5-20-3-6-8-10-14-13-5-3-12-5-20-5z m0 17c11 0 17 7 17 21 0 7-2 12-5 16-2 3-6 5-12 5-10 0-16-7-16-21 0-14 5-21 16-21z m0 0m-62 57l18 0 0-17-18 0 0-56-23 0 0 56-13 0 0 17 13 0c1 10 4 18 9 23 6 5 15 8 27 9l8 0 1-16-7 0c-5 0-9-2-12-3-2-2-3-5-3-10z m0 0m-42-40l-47 0c0-6 2-10 5-13 3-3 8-4 14-4 3 0 7 1 11 2 3 1 7 3 10 5l6-15c-4-3-8-5-13-6-5-2-10-3-16-3-12 0-21 4-28 10-7 7-11 16-11 28 0 7 1 14 5 20 3 5 7 10 12 13 6 3 12 5 19 5 10 0 18-3 24-10 6-7 9-16 9-27z m-33 26c-4 0-7-1-10-4-2-2-4-6-4-11l28 0c0 5-1 9-4 12-2 2-5 4-9 4z m0 0m-72-59l0 105 22 0 0-105z m0 0m-46 75c7 0 12-2 17-5 5-3 9-7 11-13 3-6 4-13 4-20 0-8-1-14-4-20-2-5-6-10-11-13-5-3-10-5-17-5-5 0-9 1-13 3-4 2-7 5-9 9l0-37-22 0 0 99 22 0 0-10c2 4 5 7 9 9 4 2 8 3 13 3z m-6-59c5 0 9 2 12 5 3 4 4 9 4 16 0 6-1 11-4 15-3 4-7 6-12 6-5 0-9-2-12-6-3-3-5-8-5-15 0-7 2-12 5-15 2-4 6-6 12-6z m0 0m-87 59c11 0 19-3 24-8 5-5 8-13 8-24l0-43-22 0 0 11c-1-3-3-6-7-9-3-2-7-3-12-3-5 0-9 1-13 3-4 2-8 5-10 8-2 4-3 8-3 12 0 6 1 10 4 13 2 3 7 5 13 6 6 2 14 2 24 2l4 0 0 3c0 4-1 7-3 9-1 2-5 3-9 3-4 0-8-1-12-2-4-1-9-3-12-5l-6 15c4 2 9 4 15 6 6 2 12 3 17 3z m-4-60c4 0 8 1 10 4 3 3 4 7 4 11l0 3-2 0c-8 0-14-1-17-2-3-1-5-4-5-7 0-3 1-5 3-7 2-1 4-2 7-2z m0 0m-46 1c3 0 5 0 7 0l-1-16c-3-1-5-1-8-1-11 0-19 3-24 7-5 5-8 12-8 22l0 28-14 0 0 17 14 0 0 21 22 0 0-21 19 0 0-17-19 0 0-27c0-9 4-14 12-14z m0 0m-98-17c-8 0-15 1-23 3-7 2-13 5-18 9l7 16c10-7 22-10 34-10 7 0 12 1 15 3 4 2 5 5 5 9 0 3-1 6-4 8-3 2-9 3-17 5-10 2-17 4-22 7-6 3-10 6-12 10-3 4-4 9-4 14 0 7 2 12 5 17 4 5 9 9 15 12 6 2 13 4 22 4 7 0 14-1 21-3 7-3 12-6 16-9l-7-17c-9 7-20 11-30 11-6 0-11-1-14-4-4-2-5-5-5-9 0-3 0-5 1-6 2-1 4-3 7-4 3-1 8-2 13-4 14-3 23-6 29-11 6-5 9-11 9-19 0-10-4-18-11-23-8-6-18-9-32-9z m0 0" horiz-adv-x="2200" />

<glyph glyph-name="warehouse" unicode="&#x49;" d="M475 700l-475-275 100 0 0-400c0-25 22-50 50-50l150 0 0 250c0 28 22 50 50 50l350 0c28 0 49-22 50-50l0-250 150 0c28 0 50 22 50 50l0 400 100 0-475 275c-21 12-42 25-50 25-8 0-28-12-50-25z m-125-475l0-50 350 0 0 50z m0-100l0-50 350 0 0 50z m0-100l0-50 350 0 0 50z" horiz-adv-x="1050" />

<glyph glyph-name="logo" unicode="&#x4c;" d="M292 404c31-47 46-100 51-137l55 0c-4 45-22 109-59 167-45 68-103 104-168 104l0 0c-49 0-96-22-127-61-33-41-46-94-34-145l53 11c-7 35 2 72 24 99 21 26 51 41 84 41l0 0c58 0 98-43 121-80m401-386c-22 30-37 66-44 100l-56 0c4-27 15-71 45-118-18-31-52-62-88-81 0 0 0 0 0 0 0 0 0 0 0 0-36 18-69 50-88 81 30 47 41 91 45 118l-56 0c-7-34-22-70-44-100l-9-13 6-15c24-51 78-102 135-127l11-5 0 0 0 0 11 5c57 25 111 76 134 127l7 15z m0 0m115 386c-30-46-46-99-51-136l-55 0c5 45 22 109 60 167 44 68 102 104 167 104l0 0c50 0 96-23 128-61 32-41 45-94 34-145l-54 11c7 35-1 71-23 99-21 26-51 40-85 40l0 0c-57 0-97-43-121-79m-354-136l55 0c-6 64-32 120-54 169-22 49-43 96-43 142 1 54 31 108 82 146 9 6 34 26 56 47 23-21 48-40 57-47 50-38 81-92 81-146 0-46-20-93-43-142-22-49-47-105-54-169l56 0c6 53 28 101 49 147 24 55 48 106 47 165 0 70-39 141-103 189-8 6-47 36-70 60l-20 22-20-22c-22-24-62-54-69-60-64-48-103-119-104-189 0-59 23-110 48-165 21-46 42-94 49-147m-219-101l630 0 0 53-630 0z m0 0" horiz-adv-x="1100" />

<glyph glyph-name="network" unicode="&#x4e;" d="M113 260l-33 0 0 87c0 14 5 24 14 32 10 7 22 10 38 10 11 0 20-1 28-4 8-4 14-8 18-15 4-6 7-14 7-23l0-87-34 0 0 76c0 6-1 12-4 15-4 3-8 5-15 5-6 0-10-2-14-5-3-4-5-9-5-15z m0 0m180 57l34-4c-3-11-7-21-13-30-6-8-14-15-24-19-9-5-20-8-32-8-12 0-23 3-33 9-10 6-17 14-23 24-5 10-8 21-8 34 0 12 3 23 8 33 5 10 13 18 23 24 9 6 21 9 33 9 9 0 16-1 23-3 7-2 13-5 18-8 4-4 9-8 12-12 4-5 7-9 9-14l-81-61-16 21 50 38c-4 4-9 6-17 6-5 0-10-1-14-4-5-3-8-7-11-12-2-5-3-11-3-17 0-5 1-10 4-15 2-6 6-10 11-13 5-3 10-5 17-5 5 0 10 1 15 3 5 3 9 6 12 10 3 4 5 9 6 14m77 69l24 0 0-32-24 0 0-47c0-4 1-8 3-10 2-2 5-4 8-4l13 0 0-33-18 0c-14 0-24 4-31 12-5 8-9 19-9 34l0 114 34 0z m0 0m106 0l35 0 0-76c0-13 6-20 17-20 13 0 19 7 19 20l0 76 35 0 0-84c0-10-3-18-7-25-4-7-10-12-17-15-8-4-16-5-24-5-17 0-30 7-41 21-9-14-22-21-39-21-9 0-17 1-24 5-7 3-13 8-17 15-4 7-7 15-7 25l0 84 35 0 0-76c0-13 6-20 18-20 6 0 11 2 14 5 2 4 3 9 3 15z m1 0m178-30c-6 0-12-1-16-4-5-2-8-6-11-11-2-5-4-11-4-18 0-10 3-18 9-24 5-6 13-9 22-9 6 0 11 1 16 4 4 2 8 6 11 11 2 5 3 11 3 18 0 7-1 12-3 17-3 6-6 9-11 12-4 3-10 4-16 4m0 33c13 0 24-3 34-9 9-5 17-13 22-23 5-10 8-22 8-34 0-12-2-23-8-33-5-11-12-19-22-25-10-5-21-8-34-8-13 0-24 2-34 8-9 6-17 14-22 25-5 10-8 21-8 33 0 12 3 24 8 34 5 9 13 18 22 23 10 6 21 9 34 9m111-130l-36 0 0 127 32 0 0-24 0 0c3 8 7 15 13 19 5 5 12 7 19 7l7 0 0-36-8 0c-8 0-15-3-20-8-5-6-8-13-8-23z m0 1m79 0l-33 0 0 182 33 0 0-98 10 0c2 0 5 1 8 3 3 2 5 6 7 10l13 29 37 0-13-29c-3-6-5-11-7-14-2-3-4-5-6-7-2-1-5-2-9-3l0-1c12-2 21-6 25-12 5-6 7-16 7-28l0-32-33 0 0 29c0 8-2 14-5 17-4 4-8 6-15 6l-19 0 0-52z m0 0" horiz-adv-x="1000" />

<glyph glyph-name="osm" unicode="&#x4f;" d="M438 242c0-40-9-76-27-109s-44-59-76-77c-32-19-68-28-107-28-39 0-75 9-107 28-32 18-58 44-76 77-18 33-28 69-28 109 0 45 10 83 28 116 18 33 43 59 75 76 31 17 68 25 108 25 40 0 76-8 108-25 31-17 56-43 75-76 18-33 27-71 27-116h0z m-210-125c6 0 12 1 18 3s10 6 13 10c4 3 7 8 10 13 3 6 5 11 6 18 2 6 3 12 4 19s2 13 2 20c0 7 1 14 1 20s0 13 0 19c0 3 0 6 0 7 0 2 0 5 0 9 0 6 0 13 0 20 0 7 0 14-1 21s-2 14-3 21c-1 7-3 13-6 20-3 6-6 11-9 16-4 4-9 8-15 11s-13 4-20 4c-7 0-13-1-18-3-6-2-10-5-14-9s-7-8-9-13c-3-5-5-10-7-16-1-5-3-11-4-18-1-6-1-12-2-18 0-7 0-13 0-19s0-11 0-17c0-4 0-7 0-9 0-1 0-4 0-7 0-6 0-11 0-17s0-11 0-17c1-6 1-12 2-18s1-12 2-18c2-6 3-11 5-16s4-10 7-15c2-4 5-8 9-11s8-6 13-7c5-2 10-3 16-3l0 0z m521 335v-133h-79c-3 13-10 25-20 36s-23 15-35 15c-8 0-14-2-18-6s-7-10-7-18c0-5 2-9 7-13s10-7 17-10c7-2 15-5 25-8 9-2 19-6 29-9 10-4 21-8 31-12 10-5 20-11 30-18 9-8 18-16 25-26 7-10 13-22 18-36 4-15 7-31 7-49 0-17-2-34-8-51-6-16-14-31-25-44-11-13-24-23-39-31-16-8-33-11-51-11-18 0-34 2-46 7-12 4-25 12-38 24l-9-24h-83v133h82c5-12 13-23 24-33 12-9 24-14 36-14 8 0 14 2 20 6 5 3 8 9 8 16 0 6-2 11-5 15-4 4-8 7-12 9-5 2-10 4-16 5-10 3-19 6-27 8s-16 6-25 9c-8 4-16 7-23 11-6 3-13 7-20 12s-13 10-18 15c-5 6-9 12-14 19-4 7-8 14-10 22-3 8-5 17-7 26-2 10-2 21-2 32 0 41 10 73 29 97 20 24 49 36 88 36 33 0 59-7 80-23 0 2 3 7 8 16h73l0 0z m195-280c0-3 0-6 0-7s0-4 0-8c0-3 1-5 1-7 1-1 1-3 2-6 1-3 2-5 4-6 1-1 3-2 5-4 2-2 4-3 7-4 3-1 6-1 10-2 4-1 8-1 12-1v-92h-167v92c5 0 9 1 13 1 4 1 7 2 10 3 2 0 5 2 7 4 2 2 4 4 5 5 2 2 3 5 4 8 1 3 1 6 2 8 0 3 1 6 1 11 0 5 0 8 0 11 0 3 0 7 0 13v170h-42l-1 91h215l79-197 71 197h201v-91h-38v-234h40v-92h-206v92h31v159l-87-251h-72l-107 256v-119l0 0z m-944-263h1414v-59h-1414v59l0 0z m0 941v-236c75 52 333 88 574 52 245-38 565-211 840 7v177h-1414v0z m1160-248l-59 40-60-40 20 67-57 42 72 2 25 65 24-65 72-2-57-42 20-67h0z" horiz-adv-x="1415" />

<glyph glyph-name="gplus-squared" unicode="&#x51;" d="M512 345q0 15-4 36h-202v-74h122q-2-13-10-28t-21-29-37-25-54-10q-55 0-94 40t-39 95 39 95 94 40q52 0 86-33l58 57q-60 55-144 55-89 0-151-62t-63-152 63-151 151-63q92 0 149 58t57 151z m192-26h61v62h-61v61h-61v-61h-61v-62h61v-61h61v61z m153 299v-536q0-66-47-113t-114-48h-535q-67 0-114 48t-47 113v536q0 66 47 113t114 48h535q67 0 114-48t47-113z" horiz-adv-x="857.1" />

<glyph glyph-name="scouts" unicode="&#x53;" d="M3927 831l-113 0c-33 0-44-11-44-42l0-235c0-31 13-42 44-42l161 0c31 0 38-8 38-39l0-579c0-30 12-44 42-44l236 0c30 0 42 14 42 44l0 579c0 31 7 39 38 39l160 0c30 0 44 11 44 42l0 235c0 30-13 42-44 42l-209 0m-2040-652c-98 0-168 76-168 174 0 97 70 174 168 174 97 0 168-77 168-174 0-98-71-174-168-174m0 671c-277 0-503-191-503-497 0-306 225-498 503-498 277 0 503 192 503 498 0 306-226 497-503 497m-894-671c-97 0-168 78-168 176 0 97 71 172 168 172 52 0 85-18 117-48 31-31 56-29 88-4l191 144c12 9 19 30 6 45-111 138-264 186-402 186-277 0-503-191-503-497 0-307 226-498 503-498 138 0 291 48 402 186 13 15 6 36-6 46l-191 143c-32 25-57 27-88-4-32-30-65-48-117-48m1986-328l-195 5c-186 0-337 126-337 377l0 555c0 30 11 44 42 44l235 0c31 0 42-14 42-44l0-437c0-84 30-166 118-166 82 0 113 77 113 161l0 437c0 30 11 44 42 44l235 0c31 0 42-14 42-44l0-555c0-251-151-377-337-377m1669 0c242 0 418 123 418 321 0 200-147 270-338 301-95 15-170 9-170 52 0 23 24 40 81 40 62 0 130-26 204-60 34-19 51-10 64 11l100 177c12 23 6 44-11 53-110 63-219 87-359 87-212 0-404-119-404-312 0-206 151-287 376-319 96-13 126-23 126-51 0-28-38-42-89-42-81 0-181 34-260 82-34 20-51 15-64-6l-91-168c-11-23-11-40 11-53 106-72 259-113 406-113m-4611 0c247 0 425 124 425 327 0 203-150 274-344 305-96 16-173 10-173 54 0 23 25 40 83 40 63 0 132-26 207-61 35-19 52-10 66 11l102 181c11 23 5 44-12 54-111 63-223 88-365 88-216 0-412-121-412-317 0-210 154-292 383-325 98-13 129-23 129-52 0-29-39-42-91-42-82 0-184 34-265 82-34 22-52 16-65-5l-92-171c-12-23-12-41 11-54 108-73 263-116 413-116" horiz-adv-x="5461" />

<glyph glyph-name="twitter-squared" unicode="&#x54;" d="M714 510q-31-14-67-19 38 22 52 65-37-21-75-28-34 36-85 36-49 0-83-34t-35-83q0-16 3-27-72 4-135 37t-107 86q-16-28-16-59 0-64 51-98-27 1-56 15v-1q0-42 28-75t68-40q-16-5-28-5-7 0-22 3 12-36 42-59t67-23q-64-50-145-50-15 0-28 2 82-53 180-53 62 0 117 20t94 53 67 76 42 91 13 94q0 10 0 15 35 25 58 61z m143 108v-536q0-66-47-113t-114-48h-535q-67 0-114 48t-47 113v536q0 66 47 113t114 48h535q67 0 114-48t47-113z" horiz-adv-x="857.1" />

<glyph glyph-name="down-open" unicode="&#x56;" d="M939 399l-414-413q-10-11-25-11t-25 11l-414 413q-11 11-11 26t11 25l93 92q10 11 25 11t25-11l296-296 296 296q11 11 25 11t26-11l92-92q11-11 11-25t-11-26z" horiz-adv-x="1000" />

<glyph glyph-name="wordpress" unicode="&#x57;" d="M71 350q0 91 37 175l205-561q-109 53-176 157t-66 229z m719 22q0-11-2-22t-5-27-7-25-9-33-10-32l-43-143-155 461q26 2 49 4 11 2 15 11t-2 17-15 8l-115-6q-42 1-113 6-6 0-11-3t-6-9-1-10 5-9 11-5l44-4 67-183-94-281-156 464q26 2 49 4 11 2 15 11t-2 17-15 8l-115-6q-4 0-13 0t-14 1q58 89 153 141t205 52q82 0 157-29t133-84h-6q-31 0-51-22t-21-53q0-7 1-14t2-12 5-13 5-11 7-13 7-12 8-13 8-13q35-60 35-118z m-283-59l133-361q0-4 2-7-70-24-142-24-62 0-121 18z m369 243q53-97 53-206 0-117-58-215t-156-156l132 379q33 94 33 154 0 23-4 44z m-376 294q102 0 194-40t160-106 106-160 40-194-40-194-106-160-160-106-194-40-194 40-160 106-106 160-40 194 40 194 106 160 160 106 194 40z m0-977q97 0 185 38t152 102 102 152 38 185-38 185-102 152-152 102-185 38-185-38-152-102-102-152-38-185 38-185 102-152 152-102 185-38z" horiz-adv-x="1000" />

<glyph glyph-name="cambridgshire-linear" unicode="&#x58;" d="M183 289l33 40c23-19 47-31 76-31 23 0 37 9 37 24l0 1c0 14-9 21-52 32-51 13-84 28-84 78l0 1c0 46 37 77 89 77 37 0 69-12 95-32l-29-43c-23 16-45 25-67 25-21 0-32-9-32-22l0 0c0-17 11-23 55-34 52-14 81-32 81-77l0 0c0-51-39-80-94-80-39 0-78 14-108 41m223 60l0 0c0 56 43 102 102 102 37 0 60-12 79-32l-34-37c-13 13-25 22-45 22-28 0-47-25-47-54l0 0c0-30 19-54 49-54 19 0 32 8 45 20l33-33c-19-20-41-35-80-35-59 0-102 45-102 101m350 0l0 1c0 28-21 54-52 54-31 0-50-25-50-54l0 0c0-29 20-54 51-54 32 0 51 24 51 53m-157 0l0 1c0 56 45 101 106 101 61 0 106-44 106-101l0 0c0-57-46-102-107-102-60 0-105 45-105 101m233-28l0 127 56 0 0-109c0-27 12-40 33-40 22 0 35 13 35 40l0 109 56 0 0-196-56 0 0 28c-13-17-29-32-57-32-42 0-67 28-67 73m212-13l0 190 55 0 0-50 46 0 0-47-46 0 0-84c0-13 6-19 18-19 10 0 20 3 28 7l0-45c-12-6-25-11-44-11-34 0-57 14-57 59m126-30l24 37c21-15 43-23 61-23 16 0 24 5 24 14l0 1c0 12-19 16-41 22-27 8-58 21-58 59l0 1c0 40 32 62 71 62 25 0 52-8 73-23l-21-38c-19 11-38 18-53 18-13 0-20-6-20-13l0-1c0-11 19-16 40-23 27-9 59-22 59-58l0-1c0-43-33-63-75-63-27 0-58 9-84 29m428 182c16-24 24-52 26-70l29 0c-2 23-12 56-31 86-23 36-53 54-87 54l0 0c-26 0-50-11-67-31-17-22-23-49-17-76l28 6c-4 18 0 37 12 51 11 14 26 22 44 22l0 0c30 0 51-23 63-42m209-201c-12 16-20 34-23 52l-30 0c3-14 9-37 24-61-10-17-27-33-46-42 0 0 0 0 0 0 0 0 0 0 0 0-18 9-36 25-46 42 16 24 22 47 24 61l-29 0c-4-18-12-36-23-52l-5-7 4-7c12-27 40-53 70-66l5-3 0 0 6 3c30 13 58 39 70 66l3 7z m0 0m59 201c-15-24-23-52-26-71l-29 0c3 23 12 57 31 87 23 35 54 54 87 54l1 0c25 0 50-12 66-32 17-21 24-49 18-75l-28 6c4 18-1 37-12 51-11 14-27 21-44 21l0 0c-30 0-51-22-63-41m-185-71l29 0c-4 33-17 62-28 88-12 26-23 50-22 74 0 28 16 56 42 76 4 3 17 13 29 24 12-11 25-21 30-24 26-20 42-48 42-76 0-24-11-48-22-74-12-26-25-55-29-88l29 0c4 28 15 52 26 76 13 29 25 56 25 86-1 37-21 74-54 99-4 3-25 18-36 31l-11 11-10-11c-12-13-33-28-37-31-33-25-53-62-53-99 0-30 12-57 24-86 11-24 22-48 26-76m-114-53l328 0 0 28-328 0z m0 0m-295-253l-48 0c1-6 3-11 6-13 3-3 7-4 13-4 4 0 8 1 11 2 4 1 7 3 10 5l6-15c-3-3-8-5-13-6-5-2-10-3-15-3-12 0-22 4-29 10-7 7-10 16-10 28 0 7 1 14 4 20 3 5 7 10 13 13 5 3 11 5 18 5 10 0 18-4 24-10 6-7 9-16 9-27z m-33 26c-4 0-7-1-10-4-3-2-4-6-5-11l29 0c0 5-2 9-4 12-2 2-6 3-10 3z m0 0m-40-3l-13-1c-6 0-10-2-13-5-2-3-4-7-4-12l0-37-22 0 0 72 21 0 0-12c4 8 12 13 23 14l7 0z m0 0m-92-56l0 73 23 0 0-73z m0 108l23 0 0-21-23 0z m0 0m-42-33c8 0 15-3 19-8 4-5 6-12 6-23l0-43-22 0 0 42c0 5-1 9-3 11-1 2-4 3-8 3-5 0-8-1-11-4-3-3-4-7-4-12l0-40-23 0 0 104 23 0 0-41c2 4 6 6 10 8 4 2 8 3 13 3z m0 0m-90-76c-7 0-13 1-18 2-6 2-11 4-15 7l6 15c4-2 8-4 13-6 5-1 9-2 14-2 4 0 6 1 8 2 2 1 3 2 3 4 0 2 0 3-2 4-1 1-4 2-7 3l-12 3c-7 1-12 4-15 7-4 3-5 8-5 13 0 5 1 9 4 12 2 4 6 6 11 8 4 2 10 3 16 3 5 0 10 0 15-2 5-2 10-4 14-7l-6-14c-8 5-16 8-23 8-3 0-6-1-8-2-2-1-3-3-3-5 0-2 0-3 2-4 1-1 3-1 6-2l12-3c7-2 13-4 16-8 4-3 5-8 5-13 0-7-2-13-8-17-5-4-13-6-23-6z m0 0m-42 33l-47 0c1-5 3-10 6-12 3-3 7-4 13-4 4 0 7 1 11 2 4 1 7 3 10 5l6-15c-3-3-8-5-13-7-5-1-10-2-15-2-12 0-22 3-29 10-7 7-11 16-11 28 0 7 2 14 5 20 3 5 7 10 13 13 5 3 11 5 18 5 10 0 18-4 24-10 6-7 9-16 9-27z m-32 27c-4 0-8-1-10-4-3-2-4-6-5-11l29 0c-1 5-2 9-4 12-3 2-6 3-10 3z m0 0m-50 14l0-65c0-12-4-21-10-27-7-6-17-9-30-9-6 0-13 1-19 3-6 1-11 4-15 6l5 16c10-5 19-8 28-8 13 0 19 6 19 17l0 8c-2-3-5-6-9-8-5-3-9-4-14-4-7 0-12 2-17 5-5 3-9 7-11 12-3 6-4 12-4 19 0 8 1 14 4 19 2 6 6 10 11 13 5 3 10 5 17 5 5 0 9-1 13-4 4-2 8-5 10-8l0 10z m-39-54c5 0 9 2 12 5 3 4 4 8 4 14 0 6-1 11-4 15-3 3-7 5-12 5-5 0-9-2-12-5-3-4-5-9-5-15 0-5 2-10 5-14 3-3 7-5 12-5z m0 0m-53 86l0-105-22 0 0 11c-2-4-5-7-9-9-4-2-8-3-14-3-6 0-11 2-16 5-5 3-9 8-11 13-3 6-4 13-4 20 0 8 1 14 4 20 2 6 6 10 11 13 5 3 10 5 16 5 5 0 10-1 14-3 4-2 7-5 9-9l0 42z m-38-89c5 0 9 2 12 6 3 3 4 8 4 15 0 7-1 12-4 15-3 4-7 6-12 6-5 0-9-2-12-6-3-3-5-8-5-15 0-6 2-12 5-15 2-4 6-6 12-6z m0 0m-75-16l0 73 22 0 0-73z m-1 108l24 0 0-21-24 0z m0 0m-6-51l-13-2c-6 0-10-2-13-5-2-3-4-7-4-11l0-38-22 0 0 72 21 0 0-12c4 8 12 13 23 14l7 0z m0-1m-98 19c6 0 12-2 17-5 5-3 8-7 11-13 3-5 4-12 4-20 0-7-1-14-4-19-3-6-6-11-11-14-5-3-11-5-17-5-5 0-9 1-13 3-4 3-8 5-10 9l0-11-22 0 0 105 23 0 0-42c2 4 5 7 9 9 4 2 8 3 13 3z m-7-59c6 0 10 2 13 6 2 3 4 9 4 15 0 7-2 12-4 15-3 4-7 6-13 6-5 0-9-2-12-6-2-3-4-9-4-15 0-7 2-12 4-16 3-3 7-5 12-5z m0 0m-79 59c8 0 14-3 18-8 4-5 6-12 6-23l0-44-22 0 0 43c0 5-1 9-3 11-1 2-4 3-7 3-4 0-8-1-10-4-2-3-4-7-4-13l0-40-22 0 0 43c0 5-1 9-2 11-2 2-4 3-8 3-4 0-8-1-10-4-2-3-3-7-3-13l0-40-23 0 0 73 22 0 0-10c2 4 5 7 9 9 4 2 8 3 13 3 11 0 18-5 22-14 2 4 5 8 10 10 4 2 9 4 14 4z m0 0m-139 0c11 0 19-3 24-8 6-5 8-13 8-24l0-43-21 0 0 11c-1-3-4-6-7-9-4-2-8-3-12-3-5 0-10 1-14 3-4 2-7 5-9 8-2 4-4 8-4 12 0 6 2 10 4 13 3 3 7 5 14 6 6 2 14 2 24 2l4 0 0 3c0 4-1 7-3 9-2 2-5 3-10 3-3 0-7-1-11-2-5-1-9-3-13-5l-6 15c4 2 10 4 16 6 6 2 11 3 17 3z m-4-60c5 0 8 1 11 4 2 3 4 6 4 11l0 3-3 0c-8 0-13-1-16-2-4-2-5-4-5-7 0-3 1-5 2-7 2-2 5-2 7-2z m0 0m-77-16c-11 0-20 2-28 7-8 4-14 10-18 18-4 8-6 18-6 29 0 10 2 20 6 28 4 8 10 14 18 18 8 5 17 7 28 7 6 0 13-1 19-3 7-2 12-5 16-9l-7-16c-5 3-9 6-14 7-4 2-9 3-14 3-9 0-16-3-21-9-5-6-8-15-8-26 0-12 3-21 8-27 5-5 12-8 21-8 5 0 10 0 14 2 4 1 9 4 14 7l7-16c-4-4-9-7-16-9-6-2-13-3-19-3z m-1 0" horiz-adv-x="2200" />

<glyph glyph-name="up-open" unicode="&#x5e;" d="M939 107l-92-92q-11-10-26-10t-25 10l-296 297-296-297q-11-10-25-10t-25 10l-93 92q-11 11-11 26t11 25l414 414q11 10 25 10t25-10l414-414q11-11 11-25t-11-26z" horiz-adv-x="1000" />

<glyph glyph-name="file-pdf" unicode="&#x61;" d="M819 638q16-16 27-42t11-50v-642q0-23-15-38t-38-16h-750q-23 0-38 16t-16 38v892q0 23 16 38t38 16h500q22 0 49-11t42-27z m-248 136v-210h210q-5 17-12 23l-175 175q-6 7-23 12z m215-853v572h-232q-23 0-38 16t-16 37v233h-429v-858h715z m-287 331q18-14 47-31 33 4 65 4 82 0 99-27 9-13 1-29 0-1-1-1l-1-2v0q-3-21-39-21-27 0-64 11t-73 29q-123-13-219-46-85-146-135-146-8 0-15 4l-14 7q0 0-3 2-6 6-4 20 5 23 32 51t73 54q8 5 13-3 1-1 1-2 29 47 60 110 38 76 58 146-13 46-17 89t4 71q6 22 23 22h12q13 0 20-8 10-12 5-38-1-3-2-4 0-2 0-5v-17q-1-68-8-107 31-91 82-133z m-321-229q29 13 76 88-29-22-49-47t-27-41z m222 513q-9-23-2-73 1 4 4 24 0 2 4 24 1 3 3 5-1 0-1 1-1 1-1 2 0 12-7 20 0-1 0-1v-2z m-70-368q76 30 159 45-1 0-7 5t-9 8q-43 37-71 98-15-48-46-110-17-31-26-46z m361 9q-13 13-78 13 42-16 69-16 8 0 10 1 0 0-1 2z" horiz-adv-x="857.1" />

<glyph glyph-name="creative-commons" unicode="&#x63;" d="M338 162q85 0 143 58 8 10 2 20l-25 46q-4 7-14 9-9 1-15-6l-2-1q-2-3-6-6t-10-8-13-8-16-7-19-5-21-2q-42 0-70 28t-27 71q0 42 27 70t68 27q21 0 40-8t28-15l9-8q6-6 14-6 9 2 14 8l29 44q8 11-1 22-1 2-6 6t-17 13-27 16-37 13-48 5q-83 0-138-54t-54-134q0-81 54-135t138-53z m351 0q86 0 144 58 7 10 2 20l-25 46q-5 8-14 9-9 1-15-6l-2-1q-3-3-7-6t-10-8-13-8-16-7-18-5-21-2q-43 0-70 28t-27 71q0 42 26 70t68 27q21 0 40-8t29-15l8-8q7-6 15-6 9 2 13 8l30 44q7 11-1 22-2 2-6 6t-17 13-27 16-38 13-48 5q-82 0-137-54t-55-134q0-81 54-135t138-53z m-189 599q-84 0-160-33t-130-87-88-131-33-160 33-160 88-130 130-88 160-33 160 33 131 88 87 130 33 160-33 160-87 131-131 87-160 33z m0 89q102 0 194-40t160-106 106-160 40-194-40-194-106-160-160-106-194-40-194 40-160 106-106 160-40 194 40 194 106 160 160 106 194 40z" horiz-adv-x="1000" />

<glyph glyph-name="cambridge-stack" unicode="&#x64;" d="M131 158l23 27c16-13 33-21 53-21 16 0 25 6 25 16l0 1c0 10-6 15-35 22-36 9-59 19-59 55l0 0c0 32 26 53 62 53 26 0 48-8 66-22l-20-29c-16 10-31 17-46 17-15 0-23-7-23-15l0-1c0-11 7-15 38-23 36-9 56-22 56-53l0-1c0-35-27-55-65-55-27 0-54 10-75 29m155 41l0 0c0 39 29 71 71 71 26 0 42-9 54-23l-23-25c-9 9-17 15-31 15-19 0-33-17-33-37l0-1c0-20 13-37 34-37 13 0 22 5 31 14l23-23c-13-14-28-24-56-24-40 0-70 31-70 70m134 0l0 0c0 39 31 71 73 71 42 0 74-31 74-70l0-1c0-39-32-70-74-70-42 0-73 31-73 70m109 0l0 0c0 20-15 38-36 38-22 0-35-17-35-37l0-1c0-20 14-37 35-37 22 0 36 17 36 37m53-20l0 88 38 0 0-75c0-19 9-28 23-28 15 0 24 9 24 28l0 75 39 0 0-136-39 0 0 20c-8-12-20-22-39-22-29 0-46 19-46 50m146-9l0 132 39 0 0-35 32 0 0-32-32 0 0-58c0-9 4-14 12-14 7 0 14 2 19 5l0-31c-8-4-17-7-30-7-24 0-40 9-40 40m88-20l16 25c15-10 30-16 43-16 11 0 16 4 16 10l0 0c0 9-13 12-28 16-19 6-40 15-40 41l0 0c0 28 22 43 49 43 18 0 36-5 51-15l-15-27c-13 8-26 13-36 13-10 0-15-4-15-10l0 0c0-8 13-11 28-16 19-6 41-16 41-40l0-1c0-30-22-44-52-44-19 0-40 7-58 21m-381 398c11-17 17-36 18-49l20 0c-1 16-8 39-21 60-16 25-37 38-61 38l0 0c-18 0-34-8-46-22-12-15-16-34-12-53l19 4c-2 13 1 26 9 36 7 9 18 15 30 15l0 0c21 0 36-16 44-29m145-140c-8 11-13 24-16 36l-20 0c1-9 5-25 16-42-6-12-19-23-32-29 0 0 0 0 0 0 0 0 0 0 0 0-12 6-25 17-31 29 10 17 15 33 16 42l-20 0c-3-12-8-25-16-36l-4-4 3-6c8-18 28-36 48-46l4-1 0 0 0 0 4 1c21 9 41 28 49 46l2 6z m0 0m42 140c-11-17-17-36-18-49l-20 0c1 16 8 39 21 60 16 25 37 38 61 38l0 0c18 0 35-8 46-23 12-14 16-33 12-52l-19 4c2 13-1 26-9 36-7 9-18 14-30 14l0 0c-21 0-35-15-44-28m-128-49l20 0c-2 23-11 43-20 61-8 18-15 34-15 51 0 19 11 39 29 53 3 2 13 9 21 17 8-8 17-15 20-17 18-14 29-34 30-53 0-17-8-33-16-51-8-18-17-38-20-61l20 0c3 19 11 36 18 53 9 19 17 38 17 59 0 26-14 51-37 69-3 2-17 13-25 21l-7 8-7-8c-9-8-23-19-26-21-23-18-37-43-37-69 0-21 8-40 17-59 8-17 16-34 18-53m-79-37l228 0 0 19-228 0z m0 0m374-450l-33 0c1-4 2-7 4-9 2-2 6-3 10-3 2 0 5 1 7 1 3 1 5 2 7 4l4-10c-2-2-5-4-9-5-3-1-7-2-10-2-9 0-15 3-20 7-5 5-8 12-8 20 0 5 1 9 4 13 2 4 5 7 8 10 4 2 8 3 13 3 7 0 13-2 17-7 4-4 6-11 6-19z m-22 18c-3 0-5-1-7-3-2-1-3-4-3-8l19 0c0 4-1 7-2 8-2 2-4 3-7 3z m0 0m-35 10l0-46c0-8-2-14-7-18-4-4-11-6-20-6-5 0-9 0-13 1-5 1-8 3-11 5l4 11c6-4 13-6 19-6 9 0 13 4 13 12l0 6c-2-3-4-5-7-6-2-2-6-3-9-3-5 0-9 1-12 3-3 2-6 5-8 9-2 4-3 8-3 13 0 5 1 10 3 14 2 3 5 6 8 8 3 2 7 3 12 3 3 0 6 0 9-2 3-1 5-3 7-6l0 7z m-27-38c4 0 6 1 8 4 2 2 3 5 3 10 0 4-1 7-3 9-2 3-4 4-8 4-4 0-6-1-8-4-2-2-3-5-3-9 0-5 1-8 3-10 2-2 4-4 8-4z m0 0m-36 60l0-73-16 0 0 8c-1-3-3-5-6-7-3-1-6-2-10-2-4 0-8 1-11 4-3 2-6 5-8 9-2 4-3 9-3 14 0 5 1 9 3 13 2 4 5 7 8 10 3 2 7 3 12 3 3 0 6-1 9-2 3-2 5-4 6-6l0 29z m-27-62c3 0 6 1 8 4 2 2 3 6 3 11 0 4-1 8-3 10-2 3-5 4-8 4-4 0-7-1-9-4-2-2-3-6-3-10 0-5 1-8 3-11 2-2 5-4 9-4z m0 0m-52-11l0 51 15 0 0-51z m-1 75l17 0 0-14-17 0z m0 0m-4-36l-9-1c-4 0-7-1-9-3-2-2-3-5-3-8l0-27-15 0 0 51 15 0 0-9c2 6 7 9 15 10l5 0z m0 0m-68 13c4 0 8-1 12-3 3-3 5-6 7-10 2-3 3-8 3-13 0-5-1-10-3-14-1-4-4-7-8-9-3-3-7-4-11-4-3 0-7 1-9 2-3 2-5 4-7 7l0-8-15 0 0 73 15 0 0-29c2 2 4 4 7 6 2 1 6 2 9 2z m-5-41c4 0 7 1 9 4 2 3 3 6 3 11 0 4-1 8-3 10-2 3-5 4-9 4-3 0-6-1-8-4-2-2-3-6-3-11 0-4 1-8 3-10 2-3 5-4 8-4z m0 0m-55 41c6 0 10-2 13-5 2-4 4-9 4-16l0-31-16 0 0 30c0 4 0 6-1 7-1 2-3 3-5 3-3 0-6-1-7-3-2-2-3-5-3-9l0-28-15 0 0 30c0 4-1 6-2 7-1 2-3 3-5 3-3 0-5-1-7-3-2-2-2-5-2-9l0-28-16 0 0 51 15 0 0-7c2 3 4 4 6 6 3 1 6 2 10 2 7 0 12-3 15-9 1 2 3 5 6 6 3 2 7 3 10 3z m0 0m-96 0c7 0 13-2 17-5 3-4 5-9 5-17l0-30-15 0 0 8c-1-3-2-5-5-6-2-2-5-3-8-3-4 0-7 1-10 2-2 2-4 4-6 6-2 2-2 5-2 8 0 4 1 7 2 9 2 2 5 4 10 5 4 0 9 1 17 1l2 0 0 2c0 3 0 5-2 6-1 1-3 2-6 2-3 0-6 0-9-1-3-1-5-2-8-4l-4 10c3 2 6 4 10 5 5 1 9 2 12 2z m-3-42c3 0 6 1 7 3 2 2 3 5 3 8l0 1-2 0c-5 0-9 0-11-1-2-1-4-2-4-5 0-1 1-3 2-4 2-1 3-2 5-2z m0 0m-54-11c-7 0-14 2-19 5-6 3-10 7-13 13-3 5-4 12-4 19 0 8 1 14 4 20 3 5 7 10 13 13 5 3 12 4 19 4 5 0 9 0 14-2 4-1 8-3 10-6l-5-11c-3 2-6 4-9 5-3 1-6 1-10 1-6 0-11-2-15-6-3-4-5-10-5-18 0-8 2-14 5-18 4-4 9-6 15-6 4 0 7 0 10 1 3 2 6 3 9 6l5-12c-2-2-6-4-10-6-5-1-9-2-14-2z m0 0" horiz-adv-x="1054" />

<glyph glyph-name="mail-alt" unicode="&#x65;" d="M1000 454v-443q0-37-26-63t-63-27h-822q-36 0-63 27t-26 63v443q25-27 56-49 202-137 278-192 32-24 51-37t53-27 61-13h2q28 0 61 13t53 27 51 37q95 68 278 192 32 22 56 49z m0 164q0-44-27-84t-68-69q-210-146-262-181-5-4-23-17t-30-22-29-18-32-15-28-5h-2q-12 0-27 5t-32 15-30 18-30 22-23 17q-51 35-147 101t-114 80q-35 23-65 64t-31 77q0 43 23 72t66 29h822q36 0 63-26t26-63z" horiz-adv-x="1000" />

<glyph glyph-name="sands-stack" unicode="&#x67;" d="M131 158l23 27c16-13 33-21 53-21 16 0 25 6 25 16l0 1c0 10-6 15-35 22-36 9-59 19-59 55l0 0c0 32 26 53 62 53 26 0 48-8 66-22l-20-29c-16 10-31 17-46 17-15 0-23-7-23-15l0-1c0-11 7-15 38-23 36-9 56-22 56-53l0-1c0-35-27-55-65-55-27 0-54 10-75 29m155 41l0 0c0 39 29 71 71 71 26 0 42-9 54-23l-23-25c-9 9-17 15-31 15-19 0-33-17-33-37l0-1c0-20 13-37 34-37 13 0 22 5 31 14l23-23c-13-14-28-24-56-24-40 0-70 31-70 70m134 0l0 0c0 39 31 71 73 71 42 0 74-31 74-70l0-1c0-39-32-70-74-70-42 0-73 31-73 70m109 0l0 0c0 20-15 38-36 38-22 0-35-17-35-37l0-1c0-20 14-37 35-37 22 0 36 17 36 37m53-20l0 88 38 0 0-75c0-19 9-28 23-28 15 0 24 9 24 28l0 75 39 0 0-136-39 0 0 20c-8-12-20-22-39-22-29 0-46 19-46 50m146-9l0 132 39 0 0-35 32 0 0-32-32 0 0-58c0-9 4-14 12-14 7 0 14 2 19 5l0-31c-8-4-17-7-30-7-24 0-40 9-40 40m88-20l16 25c15-10 30-16 43-16 11 0 16 4 16 10l0 0c0 9-13 12-28 16-19 6-40 15-40 41l0 0c0 28 22 43 49 43 18 0 36-5 51-15l-15-27c-13 8-26 13-36 13-10 0-15-4-15-10l0 0c0-8 13-11 28-16 19-6 41-16 41-40l0-1c0-30-22-44-52-44-19 0-40 7-58 21m-381 398c11-17 17-36 18-49l20 0c-1 16-8 39-21 60-16 25-37 38-61 38l0 0c-18 0-34-8-46-22-12-15-16-34-12-53l19 4c-2 13 1 26 9 36 7 9 18 15 30 15l0 0c21 0 36-16 44-29m145-140c-8 11-13 24-16 36l-20 0c1-9 5-25 16-42-6-12-19-23-32-29 0 0 0 0 0 0 0 0 0 0 0 0-12 6-25 17-31 29 10 17 15 33 16 42l-20 0c-3-12-8-25-16-36l-4-4 3-6c8-18 28-36 48-46l4-1 0 0 0 0 4 1c21 9 41 28 49 46l2 6z m0 0m42 140c-11-17-17-36-18-49l-20 0c1 16 8 39 21 60 16 25 37 38 61 38l0 0c18 0 35-8 46-23 12-14 16-33 12-52l-19 4c2 13-1 26-9 36-7 9-18 14-30 14l0 0c-21 0-35-15-44-28m-128-49l20 0c-2 23-11 43-20 61-8 18-15 34-15 51 0 19 11 39 29 53 3 2 13 9 21 17 8-8 17-15 20-17 18-14 29-34 30-53 0-17-8-33-16-51-8-18-17-38-20-61l20 0c3 19 11 36 18 53 9 19 17 38 17 59 0 26-14 51-37 69-3 2-17 13-25 21l-7 8-7-8c-9-8-23-19-26-21-23-18-37-43-37-69 0-21 8-40 17-59 8-17 16-34 18-53m-79-37l228 0 0 19-228 0z m0 0m382-473l-8 7c-6-5-13-8-21-8-5 0-10 1-14 3-3 1-7 4-9 7-2 3-3 6-3 10 0 5 1 9 3 12 3 3 6 6 11 9-2 3-4 5-5 8-1 2-2 5-2 7 0 4 1 7 3 9 2 3 4 5 7 7 4 1 7 2 11 2 6 0 11-2 14-5 4-3 5-7 5-12 0-3-1-7-3-10-2-3-5-5-10-8l13-12c2 5 4 11 4 18l13 0c0-10-3-19-8-27l17-17z m-27 63c-2 0-4 0-5-2-1-1-2-3-2-5 0-2 0-3 1-4 1-2 2-3 4-6 3 2 6 4 7 5 1 2 2 4 2 5 0 2-1 4-2 5-1 1-3 2-5 2z m-2-52c5 0 9 2 13 5l-17 16c-5-3-7-7-7-11 0-3 1-6 3-7 2-2 5-3 8-3z m0 0m-83-12c-4 0-9 1-12 2-4 1-8 2-10 4l4 11c2-2 5-3 9-4 3-1 6-2 10-2 2 0 4 1 5 1 1 1 2 2 2 4 0 1 0 2-1 2-1 1-3 2-5 2l-9 2c-4 1-8 3-10 5-2 2-4 6-4 10 0 3 1 5 3 8 2 2 4 4 8 5 3 2 7 2 11 2 4 0 7 0 11-1 3-1 6-3 9-5l-4-10c-6 4-11 6-16 6-2 0-4-1-6-2-1 0-2-1-2-3 0-1 1-2 2-3 0 0 2-1 4-1l8-2c5-1 9-3 11-5 3-3 4-6 4-10 0-5-2-9-6-11-4-3-9-5-16-5z m0 0m-31 74l0-73-15 0 0 8c-2-3-4-5-7-7-3-1-6-2-9-2-4 0-8 1-12 4-3 2-6 5-8 9-1 4-2 9-2 14 0 5 1 9 2 13 2 4 5 7 8 10 4 2 7 3 12 3 3 0 6-1 9-2 3-2 5-4 7-6l0 29z m-27-62c4 0 7 1 9 4 1 2 2 6 2 11 0 4 0 8-2 10-2 3-5 4-9 4-3 0-6-1-8-4-2-2-3-6-3-10 0-5 1-8 3-11 2-2 4-4 8-4z m0 0m-29 28l-9-1c-4 0-7-1-9-3-2-2-3-5-3-8l0-27-15 0 0 51 15 0 0-9c2 6 7 9 15 10l5 0z m0 0m-73-40c-5 0-10 1-14 3-4 2-7 6-9 10-2 3-3 8-3 13 0 6 1 10 3 14 2 4 5 7 9 9 4 3 9 4 14 4 6 0 10-1 14-4 4-2 8-5 10-9 2-4 3-8 3-14 0-5-1-10-3-13-2-4-6-8-10-10-4-2-8-3-14-3z m0 12c8 0 12 5 12 15 0 4-1 8-3 10-2 3-5 4-9 4-7 0-11-5-11-15 0-9 4-14 11-14z m0 0m-43 40l13 0 0-12-13 0 0-39-16 0 0 39-9 0 0 12 9 0c1 7 3 12 7 16 4 3 10 5 18 6l6 0 1-11-5-1c-4 0-7 0-9-2-1-1-2-3-2-6z m0 0m-47-51l0 73 15 0 0-73z m0 0m-9 22l-33 0c0-4 1-7 4-8 2-2 5-3 9-3 2 0 5 0 7 1 3 1 5 2 7 4l5-11c-3-1-6-3-9-4-4-1-7-2-11-2-8 0-15 3-20 7-5 5-7 12-7 20 0 5 1 9 3 13 2 4 5 7 9 10 3 2 8 3 12 3 7 0 13-2 17-7 4-4 6-11 6-19z m-23 19c-3 0-5-1-7-3-2-1-3-4-3-8l19 0c0 4-1 7-2 8-2 2-4 3-7 3z m0 0m-52 11c6 0 10-2 13-5 3-4 4-9 4-16l0-31-15 0 0 30c0 3-1 6-2 7-1 2-3 3-6 3-3 0-6-1-8-3-2-2-3-5-3-8l0-29-15 0 0 73 15 0 0-29c2 3 4 5 7 6 3 1 6 2 10 2z m0 0m-72-53c-6 0-11 1-16 2-5 2-9 4-13 6l5 12c7-5 15-7 24-7 4 0 8 0 10 2 3 1 4 3 4 6 0 2-1 4-4 5-2 2-6 3-11 4-7 1-12 3-16 5-3 2-6 4-8 7-2 2-3 6-3 10 0 4 2 8 4 11 2 4 6 6 10 8 5 2 10 3 15 3 5 0 10 0 15-2 5-1 9-3 12-6l-6-11c-6 5-13 7-20 7-5 0-8-1-10-2-3-2-4-4-4-7 0-2 1-3 2-4 0-1 2-2 4-3 2-1 5-1 9-2 10-2 16-5 20-8 4-3 6-8 6-14 0-6-2-12-7-16-6-4-13-6-23-6z m-1 0m500-30l0-73-16 0 0 8c-1-3-3-5-6-6-3-2-6-3-10-3-4 0-8 1-11 4-3 2-6 5-8 9-2 4-3 9-3 14 0 5 1 9 3 13 2 4 5 7 8 10 3 2 7 3 12 3 3 0 6-1 9-2 3-2 5-4 6-6l0 29z m-27-62c4 0 6 1 8 4 2 2 3 6 3 10 0 5-1 9-3 11-2 3-4 4-8 4-4 0-6-1-8-4-2-2-3-6-3-10 0-5 1-8 3-11 1-3 4-4 8-4z m0 0m-29 28l-9-1c-4 0-8-2-9-4-2-1-3-4-3-8l0-26-15 0 0 51 14 0 0-9c3 6 8 9 16 10l5 0z m-1 0m-72-40c-5 0-10 1-14 3-4 2-7 6-9 9-2 4-3 9-3 14 0 6 1 10 3 14 2 4 5 7 9 9 4 2 9 4 14 4 5 0 10-1 14-4 4-2 7-5 10-9 2-4 3-8 3-14 0-5-1-10-3-14-3-3-6-7-10-9-4-2-9-3-14-3z m0 12c8 0 11 5 11 14 0 5 0 9-2 11-2 3-5 4-9 4-7 0-11-5-11-15 0-9 4-14 11-14z m0 0m-43 40l12 0 0-12-12 0 0-39-16 0 0 39-9 0 0 12 9 0c0 7 2 12 6 16 4 3 11 5 19 6l5 0 1-11-4-1c-4 0-7 0-9-2-1-1-2-3-2-6z m0 0m-29-29l-33 0c0-4 2-7 4-8 2-2 5-3 9-3 3 0 5 0 8 1 2 1 5 2 7 4l4-10c-3-2-6-4-9-5-4-1-7-2-11-2-8 0-15 3-20 7-5 5-7 12-7 20 0 5 1 9 3 13 2 4 5 7 9 10 4 2 8 3 13 3 7 0 12-2 16-7 4-4 7-11 7-19z m-23 19c-3 0-5-1-7-3-2-2-3-4-3-8l20 0c0 4-1 7-3 8-1 2-4 3-7 3z m0 0m-50-41l0 73 15 0 0-73z m0 0m-32 52c4 0 8-1 12-4 3-2 6-5 7-9 2-4 3-8 3-14 0-5-1-9-3-13-1-4-4-7-7-9-4-3-7-4-12-4-3 0-6 1-9 2-3 2-5 4-7 6l0-25-15 0 0 69 15 0 0-8c2 3 4 5 7 7 2 1 6 2 9 2z m-4-41c3 0 6 1 8 4 2 2 3 5 3 10 0 5-1 8-3 11-2 2-5 4-8 4-4 0-7-2-9-4-2-3-3-6-3-11 0-4 1-8 3-10 2-3 5-4 9-4z m0 0m-61 41c8 0 13-2 17-6 3-3 5-9 5-16l0-30-14 0 0 8c-1-3-3-5-6-6-2-2-5-3-8-3-3 0-7 1-9 2-3 2-5 4-7 6-1 2-2 5-2 8 0 4 1 7 3 9 1 2 5 4 9 4 4 1 10 2 17 2l2 0 0 2c0 3 0 5-1 6-2 1-4 2-7 2-3 0-5-1-8-1-3-1-6-3-9-4l-4 10c3 2 6 4 11 5 4 1 8 2 11 2z m-3-42c3 0 6 1 8 3 1 2 2 4 2 8l0 1-1 0c-6 0-10 0-12-1-2-1-3-2-3-5 0-2 0-3 2-4 1-2 2-2 4-2z m0 0m-31 0c1 0 3 0 5 1l-1-11c-2-1-4-1-6-1-8 0-13 2-17 5-3 3-5 9-5 15l0 20-9 0 0 11 9 0 0 15 16 0 0-15 12 0 0-11-12 0 0-19c0-6 2-10 8-10z m0 1m-68-12c-6 0-11 1-16 2-5 2-9 4-13 6l5 12c7-5 15-7 24-7 4 0 8 0 10 2 3 1 4 3 4 6 0 2-1 4-4 5-2 2-6 3-11 4-7 1-12 3-16 5-3 2-6 4-8 7-2 2-3 6-3 10 0 4 2 8 4 11 2 4 6 6 10 8 5 2 10 3 15 3 5 0 10 0 15-2 5-1 9-3 12-6l-6-11c-6 4-13 7-20 7-5 0-8-1-10-3-3-1-4-3-4-6 0-2 1-3 2-4 0-1 2-2 4-3 2-1 5-1 9-2 10-2 16-5 20-8 4-4 6-8 6-14 0-6-2-12-7-16-6-4-13-6-23-6z m0 0" horiz-adv-x="1054" />

<glyph glyph-name="logo-linear" unicode="&#x68;" d="M0 70l64 77c45-37 91-60 148-60 44 0 71 18 71 47l0 1c0 28-17 42-100 63-99 25-163 53-163 151l0 1c0 90 72 149 173 149 72 0 133-22 183-62l-56-82c-44 30-87 48-129 48-41 0-63-19-63-43l0-1c0-32 21-43 106-65 101-26 157-62 157-148l0-2c0-98-75-153-181-153-75 0-151 26-210 79m432 115l0 2c0 108 82 197 198 197 71 0 116-24 151-64l-66-70c-23 25-48 41-86 41-53 0-91-47-91-103l0-1c0-58 37-105 96-105 36 0 60 16 86 40l63-63c-36-40-79-69-154-69-114 0-197 87-197 195m372 0l0 2c0 108 88 197 206 197 117 0 204-87 204-196l0-1c0-109-88-197-205-197-118 0-205 87-205 195m304 0l0 2c0 55-40 104-99 104-62 0-98-47-98-103l0-1c0-56 40-105 99-105 61 0 98 48 98 103m148-53l0 245 107 0 0-211c0-51 24-77 65-77 41 0 67 26 67 77l0 211 107 0 0-379-107 0 0 54c-25-32-56-61-111-61-81 0-128 54-128 141m409-26l0 367 107 0 0-96 89 0 0-92-89 0 0-162c0-24 11-36 35-36 20 0 37 4 53 13l0-86c-23-14-49-22-85-22-66 0-110 26-110 114m244-57l45 70c41-29 84-45 120-45 31 0 45 11 45 28l0 1c0 24-37 31-78 44-53 16-113 40-113 114l0 1c0 77 62 120 138 120 48 0 100-16 141-43l-41-75c-37 22-74 36-102 36-26 0-39-12-39-26l0-2c0-21 36-31 76-45 53-18 115-43 115-112l0-2c0-84-63-122-145-122-53 0-112 18-162 57m827 352c31-47 46-100 51-137l56 0c-5 45-23 110-60 168-45 68-103 105-169 105l0 0c-50 0-97-23-128-62-33-41-46-94-35-146l55 12c-8 34 1 72 23 99 21 26 51 41 85 41l0 0c58 0 98-43 122-80m404-389c-22 30-38 66-45 101l-56 0c4-27 16-72 46-119-19-32-53-63-89-82 0 0 0 0 0 0 0 0 0 0 0 0-36 19-70 50-89 82 30 47 42 92 46 119l-57 0c-6-35-22-71-44-101l-9-13 6-15c24-51 78-103 136-128l11-5 0 0 0 0 11 5c57 25 112 77 135 128l7 15z m0 0m116 389c-31-47-46-100-51-137l-56 0c4 45 22 110 60 168 45 68 103 104 168 105l1 0c50 0 96-23 128-62 33-41 46-94 34-146l-54 12c8 34-1 71-23 99-22 26-52 41-85 41l0 0c-58 0-99-43-122-80m-357-137l56 0c-7 65-32 121-55 170-22 50-43 97-43 144 1 53 31 108 82 146 9 7 34 26 57 47 23-21 48-40 57-47 51-38 81-93 82-146 0-47-21-94-43-144-22-49-48-105-55-170l56 0c7 53 29 101 49 148 25 55 49 107 48 166 0 71-39 142-104 190-7 6-47 36-70 61l-20 22-20-22c-23-25-63-55-70-61-65-48-104-119-104-190-1-59 23-111 48-166 21-47 42-95 49-148m-220-102l634 0 0 53-634 0z m0 0" horiz-adv-x="3545" />

<glyph glyph-name="info-circled" unicode="&#x69;" d="M571 82v89q0 8-5 13t-12 5h-54v286q0 8-5 13t-13 5h-178q-8 0-13-5t-5-13v-89q0-8 5-13t13-5h53v-179h-53q-8 0-13-5t-5-13v-89q0-8 5-13t13-5h250q7 0 12 5t5 13z m-71 500v89q0 8-5 13t-13 5h-107q-8 0-13-5t-5-13v-89q0-8 5-13t13-5h107q8 0 13 5t5 13z m357-232q0-117-57-215t-156-156-215-58-216 58-155 156-58 215 58 215 155 156 216 58 215-58 156-156 57-215z" horiz-adv-x="857.1" />

<glyph glyph-name="linux" unicode="&#x6c;" d="M370 621q-6-1-9-6t-4-5q-3-1-3 2 0 7 10 9h6z m49-8q-3-1-7 4t-10 2q14 6 18-1 2-3-1-5z m-196-238q-3 0-4-2t-2-7-3-8-6-7q-5-6 0-7 2 0 7 4t7 10q0 2 1 4t1 4 1 2 0 2v2t-1 1-1 2z m477-201q0 10-31 24 2 8 4 15t3 15 2 12 0 12 0 11-2 12-3 12-2 14-4 14q-5 27-26 58t-40 42q13-11 32-47 48-90 30-155-6-22-28-23-17-2-21 10t-5 47-6 60q-5 21-11 38t-11 25-9 14-7 8-4 4q-8 35-17 58t-17 31-13 19-8 22q-3 12 3 30t2 27-24 14q-9 2-25 10t-20 9q-4 1-6 15t4 28 20 15q21 2 29-16t2-33q-6-10-1-15t17 0q7 2 7 20v21q-3 17-8 28t-11 17-13 8-15 4q-60-4-50-74 0-9-1-9-5 5-16 6t-19 0-8 3q0 31-9 50t-25 19q-15 0-23-16t-10-33q0-8 2-20t8-21 8-8q6 2 9 8 2 5-4 4-4 0-8 8t-6 19q0 12 5 21t19 8q10 0 15-12t6-22-1-12q-12-9-17-16-5-7-16-13t-11-7q-7-8-9-16t4-10q8-4 14-10t9-11 11-7 19-4q27-1 57 8 1 1 13 4t19 6 17 7 12 10q5 8 11 5 2-2 3-5t-1-7-10-5q-11-3-31-12t-25-11q-25-11-40-13-14-3-44 1-5 1-5-1t10-10q14-13 37-13 10 1 20 4t20 8 19 10 17 9 13 7 10 1 5-6q0-1-1-2t-2-3-3-3-5-2-5-3-5-3-6-2q-15-8-37-25t-38-24-27 0q-12 6-35 41-12 17-14 12-1-2-1-6 0-14-8-31t-16-31-12-33 6-35q-13-3-35-50t-26-79q-1-10-1-38t-3-33q-4-14-16-2-18 17-20 53-1 15 2 31 2 10-1 10-1-1-2-3-20-36 6-92 3-7 14-16t13-11q11-13 58-51t52-42q9-9 10-22t-8-24-25-13q4-8 16-24t15-31 4-39q26 13 4 51-2 5-6 9t-5 7-1 3q2 3 7 6t11-2q26-29 93-20 74 9 99 49 13 21 19 17 6-4 5-30 0-13-13-51-5-13-3-21t14-8q1 10 8 43t7 50q1 12-3 41t-5 54 13 39q9 10 29 10 0 21 19 30t40 6 34-13z m-351 462q2 9-1 17t-6 8q-5 1-5-4 1-3 2-3 6 0 4-9-1-11 5-11 1 0 1 2z m234-110q-1 4-3 6t-8 3-8 3q-3 2-5 5t-4 4-3 4-2 2-3-1q-7-9 4-24t22-18q5 0 8 5t2 11z m-99 119q0 6-3 11t-6 7-5 1q-3 0-5-1t0-2 3-2q8-2 10-17 0-2 5 1 1 1 1 2z m30 130q0 1-1 3t-5 3-6 4q-8 8-13 8-5 0-7-4t0-7 0-7q-1-3-4-6t-3-5 2-5q2-2 4 0t6 5 9 5q0 1 5 1t8 1 5 4z m315-749q11-6 18-13t6-14-1-12-9-13-13-10-17-11-17-9-18-9-15-7q-21-11-48-31t-42-36q-9-9-38-11t-50 8q-10 5-16 13t-9 15-13 11-26 5q-24 0-72 0-11 0-32 0t-32-2q-25 0-45-8t-30-17-24-16-30-6q-16 0-62 17t-81 24q-11 2-29 5t-28 5-22 6-18 8-10 11q-5 12 4 37t10 30q1 9-2 23t-6 23-2 21 6 15q7 6 31 8t34 6q17 10 23 20t7 28q12-41-18-59-18-11-46-8-19 1-24-6-7-8 3-32 1-3 4-10t5-10 2-9 1-13q0-8-9-27t-8-27q1-9 20-14 12-4 47-11t56-11q13-3 41-12t46-13 31-2q24 3 36 15t13 27-4 33-11 29-11 20q-67 106-94 135-38 42-63 23-6-5-9 8-1 9-1 21 1 16 6 29t13 26 13 24q4 12 14 40t17 43 17 35 21 30q62 79 70 108-7 63-9 173-1 51 13 85t59 58q22 12 58 12 30 1 59-7t50-24q32-23 51-67t17-83q-3-53 16-119 19-63 75-122 30-33 55-91t33-106q5-28 3-48t-7-30-11-13q-5-1-13-10t-15-20-23-19-34-8q-10 1-17 3t-13 8-7 8-7 12-5 11q-12 20-23 16t-15-27 4-54q11-39 0-109-5-36 10-56t41-19 47 20q33 28 50 37t58 24q30 10 43 20t10 20-14 16-28 13q-19 6-28 27t-8 40 8 27q1-18 5-32t8-23 11-15 12-11 12-7 9-6z" horiz-adv-x="857.1" />

<glyph glyph-name="location" unicode="&#x6d;" d="M429 493q0 59-42 101t-101 42-101-42-42-101 42-101 101-42 101 42 42 101z m142 0q0-61-18-100l-203-432q-9-18-27-29t-37-11-38 11-26 29l-204 432q-18 39-18 100 0 118 84 202t202 84 202-84 83-202z" horiz-adv-x="571.4" />

<glyph glyph-name="link-ext" unicode="&#x6e;" d="M786 332v-178q0-67-47-114t-114-47h-464q-67 0-114 47t-47 114v464q0 66 47 113t114 48h393q7 0 12-5t5-13v-36q0-8-5-13t-12-5h-393q-37 0-63-26t-27-63v-464q0-37 27-63t63-27h464q37 0 63 27t26 63v178q0 8 5 13t13 5h36q8 0 13-5t5-13z m214 482v-285q0-15-11-25t-25-11-25 11l-98 98-364-364q-5-6-13-6t-12 6l-64 64q-6 5-6 12t6 13l364 364-98 98q-11 11-11 25t11 25 25 11h285q15 0 25-11t11-25z" horiz-adv-x="1000" />

<glyph glyph-name="picture" unicode="&#x70;" d="M357 529q0-45-31-76t-76-32-76 32-31 76 31 76 76 31 76-31 31-76z m572-215v-250h-786v107l178 179 90-89 285 285z m53 393h-893q-7 0-12-5t-6-13v-678q0-7 6-13t12-5h893q7 0 13 5t5 13v678q0 8-5 13t-13 5z m89-18v-678q0-37-26-63t-63-27h-893q-36 0-63 27t-26 63v678q0 37 26 63t63 27h893q37 0 63-27t26-63z" horiz-adv-x="1071.4" />

<glyph glyph-name="search" unicode="&#x71;" d="M643 386q0 103-73 176t-177 74-177-74-73-176 73-177 177-73 177 73 73 177z m286-465q0-29-22-50t-50-21q-30 0-50 21l-191 191q-100-69-223-69-80 0-153 31t-125 84-84 125-31 153 31 152 84 126 125 84 153 31 153-31 125-84 84-126 31-152q0-123-69-223l191-191q21-21 21-51z" horiz-adv-x="928.6" />

<glyph glyph-name="campsite" unicode="&#x74;" d="M475 700c-25 0-36-12-44-25l-311-575-67 0c-29 0-53-22-53-50s24-50 53-50l844 0c29 0 53 22 53 50 0 28-24 50-53 50l-67 0-311 575c-8 13-19 25-44 25z m0-250l175-350-350 0z" horiz-adv-x="950" />

<glyph glyph-name="logo-stack" unicode="&#x76;" d="M0-100l40 47c27-22 56-37 91-37 27 0 44 11 44 29l0 1c0 17-10 25-62 39-61 15-101 32-101 93l0 1c0 55 45 92 107 92 45 0 83-14 114-39l-35-50c-27 18-54 30-80 30-25 0-39-12-39-27l0-1c0-20 13-26 66-40 62-16 97-38 97-92l0 0c0-61-46-95-112-95-47 0-93 16-130 49m267 71l0 1c0 66 51 121 122 121 45 0 72-14 94-39l-41-43c-15 15-29 25-53 25-33 0-57-29-57-63l0-1c0-36 23-65 60-65 22 0 37 10 53 25l39-39c-22-25-49-43-95-43-71 0-122 54-122 121m230 0l0 1c0 67 54 122 127 122 73 0 126-54 126-121l0-1c0-67-54-122-127-122-72 0-126 54-126 121m188 0l0 1c0 34-25 65-62 65-37 0-60-30-60-64l0-1c0-34 25-65 61-65 38 0 61 30 61 64m91-33l0 152 67 0 0-131c0-31 14-48 40-48 25 0 41 17 41 48l0 131 66 0 0-234-66 0 0 33c-15-20-35-38-68-38-51 0-80 33-80 87m253-16l0 227 66 0 0-59 55 0 0-57-55 0 0-100c0-15 7-23 22-23 12 0 23 3 32 9l0-54c-14-8-30-13-52-13-41 0-68 16-68 70m150-35l29 43c25-18 52-28 73-28 20 0 28 7 28 18l0 1c0 14-22 19-48 27-33 9-70 24-70 70l0 1c0 47 39 74 86 74 29 0 62-10 87-27l-25-46c-24 14-47 22-64 22-16 0-24-7-24-16l0-1c0-13 22-19 47-28 33-11 71-27 71-69l0-1c0-52-39-76-89-76-33 0-70 11-101 36m-655 685c19-29 29-62 32-84l34 0c-3 27-14 68-37 103-28 42-64 65-104 65l0 0c-31 0-60-14-80-38-20-25-28-58-21-90l34 7c-5 21 0 44 14 61 13 17 32 26 53 26l0 0c35 0 60-27 75-50m249-240c-13 18-23 41-27 62l-35 0c3-17 10-44 29-73-12-20-33-39-55-51 0 0 0 0 0 0 0 0 0 0 0 0-23 12-44 31-55 51 18 29 25 56 28 73l-35 0c-4-21-14-43-27-62l-6-8 4-9c15-32 48-64 84-79l7-3 0 0 0 0 7 3c35 15 69 47 83 79l4 9z m1 0m71 240c-19-29-28-62-31-85l-35 0c3 28 14 68 37 104 28 42 64 65 105 65l0 0c31 0 59-14 79-38 20-26 28-59 21-91l-33 8c4 21-1 44-15 61-13 16-31 25-52 25l0 0c-36 0-61-27-76-49m-220-85l34 0c-4 40-19 75-33 105-14 31-27 60-27 89 0 33 19 67 51 90 5 4 21 16 35 29 14-13 30-25 35-29 32-23 50-57 51-90 0-29-13-58-27-89-14-30-29-65-34-105l35 0c4 33 18 63 30 91 16 34 30 67 30 103 0 44-24 88-64 118-5 3-29 22-43 37l-13 14-12-14c-14-15-39-34-44-37-39-30-63-74-64-118 0-36 14-68 30-103 13-28 26-58 30-91m-136-63l392 0 0 33-392 0z m0 0" horiz-adv-x="1370" />

<glyph glyph-name="file-word" unicode="&#x77;" d="M819 638q16-16 27-42t11-50v-642q0-23-15-38t-38-16h-750q-23 0-38 16t-16 38v892q0 23 16 38t38 16h500q22 0 49-11t42-27z m-248 136v-210h210q-5 17-12 23l-175 175q-6 7-23 12z m215-853v572h-232q-23 0-38 16t-16 37v233h-429v-858h715z m-656 500v-59h39l92-369h88l72 271q4 11 5 25 2 9 2 14h2l1-14q1-1 2-11t3-14l72-271h89l91 369h39v59h-167v-59h50l-55-245q-3-11-4-25l-1-12h-3q0 2 0 4t-1 4 0 4q-1 2-2 11t-3 14l-81 304h-63l-81-304q-1-5-2-13t-2-12l-2-12h-2l-2 12q-1 14-3 25l-56 245h50v59h-167z" horiz-adv-x="857.1" />

<glyph glyph-name="cambridgshire-stack" unicode="&#x78;" d="M131 158l23 27c16-13 33-21 53-21 16 0 25 6 25 16l0 1c0 10-6 15-35 22-36 9-59 19-59 55l0 0c0 32 26 53 62 53 26 0 48-8 66-22l-20-29c-16 10-31 17-46 17-15 0-23-7-23-15l0-1c0-11 7-15 38-23 36-9 56-22 56-53l0-1c0-35-27-55-65-55-27 0-54 10-75 29m155 41l0 0c0 39 29 71 71 71 26 0 42-9 54-23l-23-25c-9 9-17 15-31 15-19 0-33-17-33-37l0-1c0-20 13-37 34-37 13 0 22 5 31 14l23-23c-13-14-28-24-56-24-40 0-70 31-70 70m134 0l0 0c0 39 31 71 73 71 42 0 74-31 74-70l0-1c0-39-32-70-74-70-42 0-73 31-73 70m109 0l0 0c0 20-15 38-36 38-22 0-35-17-35-37l0-1c0-20 14-37 35-37 22 0 36 17 36 37m53-20l0 88 38 0 0-75c0-19 9-28 23-28 15 0 24 9 24 28l0 75 39 0 0-136-39 0 0 20c-8-12-20-22-39-22-29 0-46 19-46 50m146-9l0 132 39 0 0-35 32 0 0-32-32 0 0-58c0-9 4-14 12-14 7 0 14 2 19 5l0-31c-8-4-17-7-30-7-24 0-40 9-40 40m88-20l16 25c15-10 30-16 43-16 11 0 16 4 16 10l0 0c0 9-13 12-28 16-19 6-40 15-40 41l0 0c0 28 22 43 49 43 18 0 36-5 51-15l-15-27c-13 8-26 13-36 13-10 0-15-4-15-10l0 0c0-8 13-11 28-16 19-6 41-16 41-40l0-1c0-30-22-44-52-44-19 0-40 7-58 21m-381 398c11-17 17-36 18-49l20 0c-1 16-8 39-21 60-16 25-37 38-61 38l0 0c-18 0-34-8-46-22-12-15-16-34-12-53l19 4c-2 13 1 26 9 36 7 9 18 15 30 15l0 0c21 0 36-16 44-29m145-140c-8 11-13 24-16 36l-20 0c1-9 5-25 16-42-6-12-19-23-32-29 0 0 0 0 0 0 0 0 0 0 0 0-12 6-25 17-31 29 10 17 15 33 16 42l-20 0c-3-12-8-25-16-36l-4-4 3-6c8-18 28-36 48-46l4-1 0 0 0 0 4 1c21 9 41 28 49 46l2 6z m0 0m42 140c-11-17-17-36-18-49l-20 0c1 16 8 39 21 60 16 25 37 38 61 38l0 0c18 0 35-8 46-23 12-14 16-33 12-52l-19 4c2 13-1 26-9 36-7 9-18 14-30 14l0 0c-21 0-35-15-44-28m-128-49l20 0c-2 23-11 43-20 61-8 18-15 34-15 51 0 19 11 39 29 53 3 2 13 9 21 17 8-8 17-15 20-17 18-14 29-34 30-53 0-17-8-33-16-51-8-18-17-38-20-61l20 0c3 19 11 36 18 53 9 19 17 38 17 59 0 26-14 51-37 69-3 2-17 13-25 21l-7 8-7-8c-9-8-23-19-26-21-23-18-37-43-37-69 0-21 8-40 17-59 8-17 16-34 18-53m-79-37l228 0 0 19-228 0z m0 0m492-450l-33 0c0-4 2-7 4-9 2-2 5-3 9-3 3 0 5 1 8 1 2 1 5 2 7 4l4-10c-3-2-6-4-9-5-4-1-7-2-11-2-8 0-15 3-20 7-5 5-7 12-7 20 0 5 1 9 3 13 2 4 5 7 9 10 3 2 8 3 13 3 7 0 12-2 16-7 4-4 6-11 6-19z m-23 18c-3 0-5-1-7-3-2-1-3-4-3-8l20 0c0 4-1 7-3 8-1 2-4 3-7 3z m0 0m-28-2l-9-1c-4 0-7-1-9-3-1-2-2-5-2-8l0-27-16 0 0 51 15 0 0-9c3 6 8 9 16 10l4 0z m0 0m-63-39l0 51 15 0 0-51z m-1 75l17 0 0-14-17 0z m0 0m-29-23c6 0 11-2 14-5 3-4 4-9 4-16l0-31-15 0 0 30c0 3-1 6-2 8-2 1-4 2-6 2-3 0-6-1-8-3-2-2-3-5-3-8l0-29-15 0 0 73 15 0 0-29c2 3 4 5 7 6 3 1 6 2 9 2z m0 0m-62-53c-5 0-9 1-13 2-4 1-7 2-10 4l4 11c3-2 6-3 9-4 3-1 7-2 10-2 2 0 4 1 6 1 1 1 2 2 2 4 0 1-1 2-2 2-1 1-2 2-5 2l-8 2c-5 1-8 3-11 5-2 2-3 6-3 10 0 3 1 5 3 8 1 2 4 4 7 5 4 2 7 2 12 2 3 0 7 0 10-1 4-1 7-3 9-5l-4-10c-5 4-10 6-16 6-2 0-4-1-5-2-1 0-2-1-2-3 0-1 0-2 1-3 1 0 2-1 4-1l9-2c5-1 9-3 11-5 2-3 3-6 3-10 0-5-1-9-5-11-4-3-10-5-16-5z m0 0m-29 23l-33 0c0-4 2-7 4-8 2-2 5-3 9-3 3 0 5 0 8 1 2 1 5 2 7 4l4-11c-2-2-5-3-9-4-4-1-7-2-11-2-8 0-15 3-20 7-4 5-7 11-7 20 0 5 1 9 3 13 2 4 5 7 9 9 4 3 8 4 13 4 7 0 12-2 16-7 5-5 7-11 7-19z m-23 19c-3 0-5-1-7-3-1-1-2-4-3-8l20 0c0 4-1 7-3 8-1 2-4 3-7 3z m0 0m-34 10l0-46c0-8-3-14-7-18-5-4-12-6-21-6-4 0-9 0-13 1-4 1-8 3-11 5l4 11c7-4 13-6 20-6 8 0 12 4 12 12l0 6c-1-3-3-5-6-6-3-2-6-3-10-3-4 0-8 1-11 3-4 2-6 5-8 9-2 4-3 8-3 13 0 5 1 10 3 14 2 3 4 6 8 8 3 2 7 3 11 3 4 0 7 0 10-2 3-1 5-3 6-6l0 7z m-27-38c3 0 6 1 8 4 2 2 3 5 3 10 0 4-1 7-3 9-2 3-5 4-8 4-4 0-7-1-9-4-2-2-3-5-3-9 0-5 1-8 3-10 2-2 5-4 9-4z m0 0m-37 60l0-73-15 0 0 8c-2-3-4-5-7-7-2-1-5-2-9-2-4 0-8 1-12 4-3 2-6 5-7 9-2 4-3 9-3 14 0 5 1 9 3 13 1 4 4 7 7 10 4 2 8 3 12 3 3 0 7-1 9-2 3-2 5-4 7-6l0 29z m-27-62c4 0 7 1 9 4 2 2 3 6 3 11 0 4-1 8-3 10-2 3-5 4-9 4-3 0-6-1-8-4-2-2-3-6-3-10 0-5 1-8 3-11 2-2 5-4 8-4z m0 0m-51-11l0 51 15 0 0-51z m-1 75l17 0 0-14-17 0z m0 0m-5-36l-8-1c-5 0-8-1-9-3-2-2-3-5-3-8l0-27-16 0 0 51 15 0 0-9c3 6 8 9 16 10l4 0z m0 0m-67 13c4 0 8-1 11-3 3-3 6-6 8-10 2-3 3-8 3-13 0-5-1-10-3-14-2-4-5-7-8-9-3-3-7-4-11-4-4 0-7 1-10 2-3 2-5 4-6 7l0-8-16 0 0 73 16 0 0-29c1 2 3 4 6 6 3 1 6 2 10 2z m-5-41c4 0 6 1 8 4 2 3 3 6 3 11 0 4-1 8-3 10-2 3-4 4-8 4-4 0-6-1-8-4-2-2-3-6-3-11 0-4 1-8 3-10 1-3 4-4 8-4z m0 0m-55 41c5 0 10-2 12-5 3-4 5-9 5-16l0-31-16 0 0 30c0 4 0 6-2 7-1 2-2 3-5 3-3 0-5-1-7-3-1-2-2-5-2-9l0-28-16 0 0 30c0 4 0 6-1 7-1 2-3 3-6 3-2 0-5-1-6-3-2-2-3-5-3-9l0-28-15 0 0 51 15 0 0-7c1 3 3 4 6 6 3 1 6 2 9 2 8 0 13-3 15-9 2 2 4 5 7 6 3 2 6 3 10 3z m-1 0m-95 0c7 0 13-2 16-5 4-4 6-9 6-17l0-30-15 0 0 8c-1-3-3-5-5-6-3-2-5-3-9-3-3 0-6 1-9 2-3 2-5 4-6 6-2 2-3 5-3 8 0 4 1 7 3 9 2 2 5 4 9 5 4 0 10 1 17 1l3 0 0 2c0 3-1 5-2 6-1 1-4 2-7 2-2 0-5 0-8-1-3-1-6-2-8-4l-5 10c3 2 7 4 11 5 4 1 8 2 12 2z m-3-42c3 0 5 1 7 3 2 2 3 5 3 8l0 1-2 0c-5 0-9 0-12-1-2-1-3-2-3-5 0-1 1-3 2-4 1-1 3-2 5-2z m0 0m-54-11c-8 0-14 2-20 5-5 3-9 7-12 13-3 5-4 12-4 19 0 8 1 14 4 20 3 5 7 10 12 13 6 3 12 4 20 4 4 0 9 0 13-2 5-1 8-3 11-6l-5-11c-3 2-6 4-9 5-4 1-7 1-10 1-7 0-11-2-15-6-3-4-5-10-5-18 0-8 2-14 5-18 3-4 8-6 15-6 3 0 6 0 10 1 3 2 6 3 9 6l5-12c-3-2-6-4-11-6-4-1-9-2-13-2z m0 0" horiz-adv-x="1054" />
</font>
</defs>
</svg>
